<svg width="459" height="262" viewBox="0 0 459 262" fill="none" xmlns="http://www.w3.org/2000/svg">
<rect width="459" height="262" rx="30" fill="#F78536"/>
<path d="M37.5426 67H30.9517L40.9943 37.9091H48.9205L58.9489 67H52.358L45.071 44.5568H44.8438L37.5426 67ZM37.1307 55.5653H52.6989V60.3665H37.1307V55.5653ZM79.9432 45.1818L72.3153 67H65.4972L57.8693 45.1818H64.2614L68.7926 60.7926H69.0199L73.5369 45.1818H79.9432ZM88.6754 67.4119C87.2834 67.4119 86.0429 67.1705 84.9538 66.6875C83.8648 66.1951 83.0031 65.4706 82.3686 64.5142C81.7436 63.5483 81.4311 62.3456 81.4311 60.9062C81.4311 59.6941 81.6536 58.6761 82.0987 57.8523C82.5438 57.0284 83.1499 56.3655 83.9169 55.8636C84.6839 55.3617 85.5552 54.983 86.5305 54.7273C87.5154 54.4716 88.5476 54.2917 89.6271 54.1875C90.8961 54.0549 91.9188 53.9318 92.6953 53.8182C93.4718 53.6951 94.0353 53.5152 94.3857 53.2784C94.736 53.0417 94.9112 52.6913 94.9112 52.2273V52.142C94.9112 51.2424 94.6271 50.5464 94.0589 50.054C93.5002 49.5616 92.7048 49.3153 91.6726 49.3153C90.5836 49.3153 89.7171 49.5568 89.0732 50.0398C88.4292 50.5133 88.0031 51.1098 87.7947 51.8295L82.1982 51.375C82.4822 50.0492 83.041 48.9034 83.8743 47.9375C84.7076 46.9621 85.7824 46.214 87.0987 45.6932C88.4245 45.1629 89.9586 44.8977 91.701 44.8977C92.9131 44.8977 94.0732 45.0398 95.1811 45.3239C96.2985 45.608 97.2881 46.0483 98.1499 46.6449C99.0211 47.2415 99.7076 48.0085 100.21 48.946C100.711 49.8741 100.962 50.9867 100.962 52.2841V67H95.2237V63.9744H95.0533C94.7029 64.6562 94.2341 65.2576 93.647 65.7784C93.0599 66.2898 92.3544 66.6922 91.5305 66.9858C90.7067 67.2699 89.755 67.4119 88.6754 67.4119ZM90.4084 63.2358C91.2985 63.2358 92.0845 63.0606 92.7663 62.7102C93.4482 62.3504 93.9832 61.8674 94.3714 61.2614C94.7597 60.6553 94.9538 59.9687 94.9538 59.2017V56.8864C94.7644 57.0095 94.504 57.1231 94.1726 57.2273C93.8506 57.322 93.486 57.4119 93.0788 57.4972C92.6716 57.5729 92.2644 57.6439 91.8572 57.7102C91.45 57.767 91.0807 57.8191 90.7493 57.8665C90.0391 57.9706 89.4188 58.1364 88.8885 58.3636C88.3582 58.5909 87.9463 58.8987 87.6527 59.2869C87.3591 59.6657 87.2124 60.1392 87.2124 60.7074C87.2124 61.5312 87.5107 62.161 88.1072 62.5966C88.7133 63.0227 89.4804 63.2358 90.4084 63.2358ZM105.657 67V45.1818H111.708V67H105.657ZM108.697 42.3693C107.797 42.3693 107.025 42.071 106.381 41.4744C105.747 40.8684 105.43 40.1439 105.43 39.3011C105.43 38.4678 105.747 37.7528 106.381 37.1562C107.025 36.5502 107.797 36.2472 108.697 36.2472C109.596 36.2472 110.363 36.5502 110.998 37.1562C111.642 37.7528 111.964 38.4678 111.964 39.3011C111.964 40.1439 111.642 40.8684 110.998 41.4744C110.363 42.071 109.596 42.3693 108.697 42.3693ZM122.607 37.9091V67H116.555V37.9091H122.607ZM133.675 67.4119C132.283 67.4119 131.043 67.1705 129.954 66.6875C128.865 66.1951 128.003 65.4706 127.369 64.5142C126.744 63.5483 126.431 62.3456 126.431 60.9062C126.431 59.6941 126.654 58.6761 127.099 57.8523C127.544 57.0284 128.15 56.3655 128.917 55.8636C129.684 55.3617 130.555 54.983 131.531 54.7273C132.515 54.4716 133.548 54.2917 134.627 54.1875C135.896 54.0549 136.919 53.9318 137.695 53.8182C138.472 53.6951 139.035 53.5152 139.386 53.2784C139.736 53.0417 139.911 52.6913 139.911 52.2273V52.142C139.911 51.2424 139.627 50.5464 139.059 50.054C138.5 49.5616 137.705 49.3153 136.673 49.3153C135.584 49.3153 134.717 49.5568 134.073 50.0398C133.429 50.5133 133.003 51.1098 132.795 51.8295L127.198 51.375C127.482 50.0492 128.041 48.9034 128.874 47.9375C129.708 46.9621 130.782 46.214 132.099 45.6932C133.424 45.1629 134.959 44.8977 136.701 44.8977C137.913 44.8977 139.073 45.0398 140.181 45.3239C141.299 45.608 142.288 46.0483 143.15 46.6449C144.021 47.2415 144.708 48.0085 145.21 48.946C145.711 49.8741 145.962 50.9867 145.962 52.2841V67H140.224V63.9744H140.053C139.703 64.6562 139.234 65.2576 138.647 65.7784C138.06 66.2898 137.354 66.6922 136.531 66.9858C135.707 67.2699 134.755 67.4119 133.675 67.4119ZM135.408 63.2358C136.299 63.2358 137.085 63.0606 137.766 62.7102C138.448 62.3504 138.983 61.8674 139.371 61.2614C139.76 60.6553 139.954 59.9687 139.954 59.2017V56.8864C139.764 57.0095 139.504 57.1231 139.173 57.2273C138.851 57.322 138.486 57.4119 138.079 57.4972C137.672 57.5729 137.264 57.6439 136.857 57.7102C136.45 57.767 136.081 57.8191 135.749 57.8665C135.039 57.9706 134.419 58.1364 133.888 58.3636C133.358 58.5909 132.946 58.8987 132.653 59.2869C132.359 59.6657 132.212 60.1392 132.212 60.7074C132.212 61.5312 132.511 62.161 133.107 62.5966C133.713 63.0227 134.48 63.2358 135.408 63.2358ZM150.771 67V37.9091H156.822V48.8466H157.006C157.272 48.2595 157.655 47.6629 158.157 47.0568C158.668 46.4413 159.331 45.9299 160.146 45.5227C160.969 45.1061 161.992 44.8977 163.214 44.8977C164.805 44.8977 166.272 45.3144 167.617 46.1477C168.962 46.9716 170.037 48.2169 170.842 49.8835C171.647 51.5407 172.049 53.6193 172.049 56.1193C172.049 58.553 171.656 60.608 170.87 62.2841C170.094 63.9508 169.033 65.215 167.688 66.0767C166.353 66.929 164.857 67.3551 163.2 67.3551C162.025 67.3551 161.026 67.161 160.202 66.7727C159.388 66.3845 158.72 65.8968 158.2 65.3097C157.679 64.7131 157.281 64.1117 157.006 63.5057H156.737V67H150.771ZM156.694 56.0909C156.694 57.3883 156.874 58.5199 157.234 59.4858C157.594 60.4517 158.114 61.2045 158.796 61.7443C159.478 62.2746 160.307 62.5398 161.282 62.5398C162.267 62.5398 163.1 62.2699 163.782 61.7301C164.464 61.1809 164.98 60.4233 165.33 59.4574C165.69 58.482 165.87 57.3598 165.87 56.0909C165.87 54.8314 165.695 53.7235 165.344 52.767C164.994 51.8106 164.478 51.0625 163.796 50.5227C163.114 49.983 162.276 49.7131 161.282 49.7131C160.297 49.7131 159.464 49.9735 158.782 50.4943C158.11 51.0152 157.594 51.7538 157.234 52.7102C156.874 53.6667 156.694 54.7936 156.694 56.0909ZM176.087 67V45.1818H182.138V67H176.087ZM179.126 42.3693C178.227 42.3693 177.455 42.071 176.811 41.4744C176.177 40.8684 175.859 40.1439 175.859 39.3011C175.859 38.4678 176.177 37.7528 176.811 37.1562C177.455 36.5502 178.227 36.2472 179.126 36.2472C180.026 36.2472 180.793 36.5502 181.428 37.1562C182.071 37.7528 182.393 38.4678 182.393 39.3011C182.393 40.1439 182.071 40.8684 181.428 41.4744C180.793 42.071 180.026 42.3693 179.126 42.3693ZM193.036 37.9091V67H186.985V37.9091H193.036ZM197.884 67V45.1818H203.935V67H197.884ZM200.923 42.3693C200.024 42.3693 199.252 42.071 198.608 41.4744C197.973 40.8684 197.656 40.1439 197.656 39.3011C197.656 38.4678 197.973 37.7528 198.608 37.1562C199.252 36.5502 200.024 36.2472 200.923 36.2472C201.823 36.2472 202.59 36.5502 203.224 37.1562C203.868 37.7528 204.19 38.4678 204.19 39.3011C204.19 40.1439 203.868 40.8684 203.224 41.4744C202.59 42.071 201.823 42.3693 200.923 42.3693ZM220.387 45.1818V49.7273H207.248V45.1818H220.387ZM210.231 39.9545H216.282V60.2955C216.282 60.8542 216.367 61.2898 216.538 61.6023C216.708 61.9053 216.945 62.1184 217.248 62.2415C217.56 62.3646 217.92 62.4261 218.327 62.4261C218.612 62.4261 218.896 62.4025 219.18 62.3551C219.464 62.2983 219.682 62.2557 219.833 62.2273L220.785 66.7301C220.482 66.8248 220.056 66.9337 219.506 67.0568C218.957 67.1894 218.29 67.2699 217.504 67.2983C216.045 67.3551 214.767 67.161 213.668 66.7159C212.579 66.2708 211.732 65.5795 211.126 64.642C210.52 63.7045 210.221 62.5208 210.231 61.0909V39.9545ZM228.065 75.1818C227.298 75.1818 226.578 75.1203 225.906 74.9972C225.243 74.8835 224.693 74.7367 224.258 74.5568L225.621 70.0398C226.332 70.2576 226.971 70.3759 227.539 70.3949C228.117 70.4138 228.614 70.2813 229.031 69.9972C229.457 69.7131 229.802 69.2301 230.067 68.5483L230.423 67.625L222.596 45.1818H228.96L233.477 61.2045H233.704L238.263 45.1818H244.67L236.19 69.358C235.782 70.5322 235.228 71.5549 234.528 72.4261C233.836 73.3068 232.96 73.9839 231.9 74.4574C230.839 74.9403 229.561 75.1818 228.065 75.1818Z" fill="white"/>
<path d="M47.5568 131.273C47.5568 133.176 47.196 134.795 46.4744 136.131C45.7585 137.466 44.7813 138.486 43.5426 139.19C42.3097 139.889 40.9233 140.239 39.3835 140.239C37.8324 140.239 36.4403 139.886 35.2074 139.182C33.9744 138.477 33 137.457 32.2841 136.122C31.5682 134.787 31.2102 133.17 31.2102 131.273C31.2102 129.369 31.5682 127.75 32.2841 126.415C33 125.08 33.9744 124.062 35.2074 123.364C36.4403 122.659 37.8324 122.307 39.3835 122.307C40.9233 122.307 42.3097 122.659 43.5426 123.364C44.7813 124.062 45.7585 125.08 46.4744 126.415C47.196 127.75 47.5568 129.369 47.5568 131.273ZM43.8153 131.273C43.8153 130.04 43.6307 129 43.2614 128.153C42.8977 127.307 42.3835 126.665 41.7188 126.227C41.054 125.79 40.2756 125.571 39.3835 125.571C38.4915 125.571 37.7131 125.79 37.0483 126.227C36.3835 126.665 35.8665 127.307 35.4972 128.153C35.1335 129 34.9517 130.04 34.9517 131.273C34.9517 132.506 35.1335 133.545 35.4972 134.392C35.8665 135.239 36.3835 135.881 37.0483 136.318C37.7131 136.756 38.4915 136.974 39.3835 136.974C40.2756 136.974 41.054 136.756 41.7188 136.318C42.3835 135.881 42.8977 135.239 43.2614 134.392C43.6307 133.545 43.8153 132.506 43.8153 131.273ZM50.2223 144.909V126.909H53.8018V129.108H53.9638C54.1229 128.756 54.353 128.398 54.6541 128.034C54.9609 127.665 55.3587 127.358 55.8473 127.114C56.3416 126.864 56.9553 126.739 57.6882 126.739C58.6428 126.739 59.5234 126.989 60.3303 127.489C61.1371 127.983 61.782 128.73 62.2649 129.73C62.7479 130.724 62.9893 131.972 62.9893 133.472C62.9893 134.932 62.7536 136.165 62.282 137.17C61.8161 138.17 61.1797 138.929 60.3729 139.446C59.5717 139.957 58.674 140.213 57.6797 140.213C56.9751 140.213 56.3757 140.097 55.8814 139.864C55.3928 139.631 54.9922 139.338 54.6797 138.986C54.3672 138.628 54.1286 138.267 53.9638 137.903H53.853V144.909H50.2223ZM53.7763 133.455C53.7763 134.233 53.8842 134.912 54.1001 135.491C54.3161 136.071 54.6286 136.523 55.0376 136.847C55.4467 137.165 55.9439 137.324 56.5291 137.324C57.12 137.324 57.62 137.162 58.0291 136.838C58.4382 136.509 58.7479 136.054 58.9581 135.474C59.174 134.889 59.282 134.216 59.282 133.455C59.282 132.699 59.1768 132.034 58.9666 131.46C58.7564 130.886 58.4467 130.437 58.0376 130.114C57.6286 129.79 57.1257 129.628 56.5291 129.628C55.9382 129.628 55.4382 129.784 55.0291 130.097C54.6257 130.409 54.3161 130.852 54.1001 131.426C53.8842 132 53.7763 132.676 53.7763 133.455ZM71.3757 140.256C70.0291 140.256 68.87 139.983 67.8984 139.438C66.9325 138.886 66.1882 138.108 65.6655 137.102C65.1428 136.091 64.8814 134.895 64.8814 133.514C64.8814 132.168 65.1428 130.986 65.6655 129.969C66.1882 128.952 66.924 128.159 67.8729 127.591C68.8274 127.023 69.9467 126.739 71.2308 126.739C72.0945 126.739 72.8984 126.878 73.6428 127.156C74.3928 127.429 75.0462 127.841 75.603 128.392C76.1655 128.943 76.603 129.636 76.9155 130.472C77.228 131.301 77.3842 132.273 77.3842 133.386V134.384H66.3303V132.134H73.9666C73.9666 131.611 73.853 131.148 73.6257 130.744C73.3984 130.341 73.0831 130.026 72.6797 129.798C72.282 129.565 71.8189 129.449 71.2905 129.449C70.7393 129.449 70.2507 129.577 69.8246 129.832C69.4041 130.082 69.0746 130.42 68.8359 130.847C68.5973 131.267 68.4751 131.736 68.4695 132.253V134.392C68.4695 135.04 68.5888 135.599 68.8274 136.071C69.0717 136.543 69.4155 136.906 69.8587 137.162C70.3018 137.418 70.8274 137.545 71.4354 137.545C71.8388 137.545 72.2081 137.489 72.5433 137.375C72.8786 137.261 73.1655 137.091 73.4041 136.864C73.6428 136.636 73.8246 136.358 73.9496 136.028L77.3075 136.25C77.1371 137.057 76.7876 137.761 76.2592 138.364C75.7365 138.96 75.0604 139.426 74.2308 139.761C73.407 140.091 72.4553 140.256 71.3757 140.256ZM83.3842 132.432V140H79.7536V126.909H83.2138V129.219H83.3672C83.657 128.457 84.1428 127.855 84.8246 127.412C85.5064 126.963 86.3331 126.739 87.3047 126.739C88.2138 126.739 89.0064 126.938 89.6825 127.335C90.3587 127.733 90.8842 128.301 91.2592 129.04C91.6342 129.773 91.8217 130.648 91.8217 131.665V140H88.1911V132.312C88.1967 131.511 87.9922 130.886 87.5774 130.438C87.1626 129.983 86.5916 129.756 85.8643 129.756C85.3757 129.756 84.9439 129.861 84.5689 130.071C84.1996 130.281 83.9098 130.588 83.6996 130.991C83.495 131.389 83.3899 131.869 83.3842 132.432ZM107.278 126.909V129.636H99.1982V126.909H107.278ZM101.048 140V125.963C101.048 125.014 101.232 124.227 101.602 123.602C101.977 122.977 102.488 122.509 103.136 122.196C103.783 121.884 104.519 121.727 105.343 121.727C105.9 121.727 106.408 121.77 106.869 121.855C107.335 121.94 107.681 122.017 107.908 122.085L107.261 124.812C107.119 124.767 106.942 124.724 106.732 124.685C106.528 124.645 106.317 124.625 106.102 124.625C105.567 124.625 105.195 124.75 104.985 125C104.775 125.244 104.67 125.588 104.67 126.031V140H101.048ZM114.942 140.256C113.618 140.256 112.473 139.974 111.507 139.412C110.547 138.844 109.805 138.054 109.283 137.043C108.76 136.026 108.499 134.847 108.499 133.506C108.499 132.153 108.76 130.972 109.283 129.96C109.805 128.943 110.547 128.153 111.507 127.591C112.473 127.023 113.618 126.739 114.942 126.739C116.266 126.739 117.408 127.023 118.368 127.591C119.334 128.153 120.078 128.943 120.601 129.96C121.124 130.972 121.385 132.153 121.385 133.506C121.385 134.847 121.124 136.026 120.601 137.043C120.078 138.054 119.334 138.844 118.368 139.412C117.408 139.974 116.266 140.256 114.942 140.256ZM114.959 137.443C115.561 137.443 116.064 137.273 116.467 136.932C116.871 136.585 117.175 136.114 117.379 135.517C117.589 134.92 117.695 134.241 117.695 133.48C117.695 132.719 117.589 132.04 117.379 131.443C117.175 130.847 116.871 130.375 116.467 130.028C116.064 129.682 115.561 129.509 114.959 129.509C114.351 129.509 113.839 129.682 113.425 130.028C113.016 130.375 112.706 130.847 112.496 131.443C112.291 132.04 112.189 132.719 112.189 133.48C112.189 134.241 112.291 134.92 112.496 135.517C112.706 136.114 113.016 136.585 113.425 136.932C113.839 137.273 114.351 137.443 114.959 137.443ZM123.746 140V126.909H127.266V129.193H127.402C127.641 128.381 128.041 127.767 128.604 127.352C129.166 126.932 129.814 126.722 130.547 126.722C130.729 126.722 130.925 126.733 131.135 126.756C131.345 126.778 131.53 126.81 131.689 126.849V130.071C131.518 130.02 131.283 129.974 130.982 129.935C130.68 129.895 130.405 129.875 130.155 129.875C129.621 129.875 129.143 129.991 128.723 130.224C128.308 130.452 127.979 130.77 127.734 131.179C127.496 131.588 127.376 132.06 127.376 132.594V140H123.746ZM142.879 122.545V140H139.189V122.545H142.879ZM149.478 132.432V140H145.847V126.909H149.308V129.219H149.461C149.751 128.457 150.237 127.855 150.918 127.412C151.6 126.963 152.427 126.739 153.398 126.739C154.308 126.739 155.1 126.938 155.776 127.335C156.452 127.733 156.978 128.301 157.353 129.04C157.728 129.773 157.915 130.648 157.915 131.665V140H154.285V132.312C154.29 131.511 154.086 130.886 153.671 130.438C153.256 129.983 152.685 129.756 151.958 129.756C151.469 129.756 151.038 129.861 150.663 130.071C150.293 130.281 150.004 130.588 149.793 130.991C149.589 131.389 149.484 131.869 149.478 132.432ZM167.74 126.909V129.636H159.857V126.909H167.74ZM161.646 123.773H165.277V135.977C165.277 136.312 165.328 136.574 165.43 136.761C165.533 136.943 165.675 137.071 165.857 137.145C166.044 137.219 166.26 137.256 166.504 137.256C166.675 137.256 166.845 137.241 167.016 137.213C167.186 137.179 167.317 137.153 167.408 137.136L167.979 139.838C167.797 139.895 167.541 139.96 167.212 140.034C166.882 140.114 166.482 140.162 166.01 140.179C165.135 140.213 164.368 140.097 163.709 139.83C163.055 139.562 162.547 139.148 162.183 138.585C161.82 138.023 161.641 137.312 161.646 136.455V123.773ZM175.93 140.256C174.584 140.256 173.425 139.983 172.453 139.438C171.487 138.886 170.743 138.108 170.22 137.102C169.697 136.091 169.436 134.895 169.436 133.514C169.436 132.168 169.697 130.986 170.22 129.969C170.743 128.952 171.479 128.159 172.428 127.591C173.382 127.023 174.501 126.739 175.786 126.739C176.649 126.739 177.453 126.878 178.197 127.156C178.947 127.429 179.601 127.841 180.158 128.392C180.72 128.943 181.158 129.636 181.47 130.472C181.783 131.301 181.939 132.273 181.939 133.386V134.384H170.885V132.134H178.521C178.521 131.611 178.408 131.148 178.18 130.744C177.953 130.341 177.638 130.026 177.234 129.798C176.837 129.565 176.374 129.449 175.845 129.449C175.294 129.449 174.805 129.577 174.379 129.832C173.959 130.082 173.629 130.42 173.391 130.847C173.152 131.267 173.03 131.736 173.024 132.253V134.392C173.024 135.04 173.143 135.599 173.382 136.071C173.626 136.543 173.97 136.906 174.413 137.162C174.857 137.418 175.382 137.545 175.99 137.545C176.393 137.545 176.763 137.489 177.098 137.375C177.433 137.261 177.72 137.091 177.959 136.864C178.197 136.636 178.379 136.358 178.504 136.028L181.862 136.25C181.692 137.057 181.342 137.761 180.814 138.364C180.291 138.96 179.615 139.426 178.786 139.761C177.962 140.091 177.01 140.256 175.93 140.256ZM184.308 140V126.909H187.828V129.193H187.964C188.203 128.381 188.604 127.767 189.166 127.352C189.729 126.932 190.376 126.722 191.109 126.722C191.291 126.722 191.487 126.733 191.697 126.756C191.908 126.778 192.092 126.81 192.251 126.849V130.071C192.081 130.02 191.845 129.974 191.544 129.935C191.243 129.895 190.967 129.875 190.717 129.875C190.183 129.875 189.706 129.991 189.286 130.224C188.871 130.452 188.541 130.77 188.297 131.179C188.058 131.588 187.939 132.06 187.939 132.594V140H184.308ZM197.759 132.432V140H194.129V126.909H197.589V129.219H197.742C198.032 128.457 198.518 127.855 199.2 127.412C199.881 126.963 200.708 126.739 201.68 126.739C202.589 126.739 203.381 126.938 204.058 127.335C204.734 127.733 205.259 128.301 205.634 129.04C206.009 129.773 206.197 130.648 206.197 131.665V140H202.566V132.312C202.572 131.511 202.367 130.886 201.952 130.438C201.538 129.983 200.967 129.756 200.239 129.756C199.751 129.756 199.319 129.861 198.944 130.071C198.575 130.281 198.285 130.588 198.075 130.991C197.87 131.389 197.765 131.869 197.759 132.432ZM219.95 130.642L216.626 130.847C216.57 130.562 216.447 130.307 216.26 130.08C216.072 129.847 215.825 129.662 215.518 129.526C215.217 129.384 214.857 129.312 214.436 129.312C213.874 129.312 213.399 129.432 213.013 129.67C212.626 129.903 212.433 130.216 212.433 130.608C212.433 130.92 212.558 131.185 212.808 131.401C213.058 131.616 213.487 131.79 214.095 131.92L216.464 132.398C217.737 132.659 218.686 133.08 219.311 133.659C219.936 134.239 220.249 135 220.249 135.943C220.249 136.801 219.996 137.554 219.49 138.202C218.99 138.849 218.303 139.355 217.428 139.719C216.558 140.077 215.555 140.256 214.419 140.256C212.686 140.256 211.305 139.895 210.277 139.173C209.254 138.446 208.655 137.457 208.479 136.207L212.05 136.02C212.158 136.548 212.419 136.952 212.834 137.23C213.249 137.503 213.78 137.639 214.428 137.639C215.064 137.639 215.575 137.517 215.962 137.273C216.354 137.023 216.553 136.702 216.558 136.31C216.553 135.98 216.413 135.71 216.141 135.5C215.868 135.284 215.447 135.119 214.879 135.006L212.612 134.554C211.334 134.298 210.382 133.855 209.757 133.224C209.138 132.594 208.828 131.79 208.828 130.812C208.828 129.972 209.055 129.247 209.51 128.639C209.97 128.031 210.615 127.562 211.445 127.233C212.28 126.903 213.257 126.739 214.376 126.739C216.03 126.739 217.331 127.088 218.28 127.787C219.234 128.486 219.791 129.437 219.95 130.642ZM226.165 132.432V140H222.535V122.545H226.063V129.219H226.217C226.512 128.446 226.989 127.841 227.648 127.403C228.308 126.96 229.134 126.739 230.129 126.739C231.038 126.739 231.83 126.938 232.506 127.335C233.188 127.727 233.717 128.293 234.092 129.031C234.472 129.764 234.66 130.642 234.654 131.665V140H231.023V132.312C231.029 131.506 230.825 130.878 230.41 130.429C230.001 129.98 229.427 129.756 228.688 129.756C228.194 129.756 227.756 129.861 227.376 130.071C227.001 130.281 226.705 130.588 226.489 130.991C226.279 131.389 226.171 131.869 226.165 132.432ZM237.511 140V126.909H241.142V140H237.511ZM239.335 125.222C238.795 125.222 238.332 125.043 237.946 124.685C237.565 124.321 237.375 123.886 237.375 123.381C237.375 122.881 237.565 122.452 237.946 122.094C238.332 121.73 238.795 121.548 239.335 121.548C239.875 121.548 240.335 121.73 240.716 122.094C241.102 122.452 241.295 122.881 241.295 123.381C241.295 123.886 241.102 124.321 240.716 124.685C240.335 125.043 239.875 125.222 239.335 125.222ZM244.05 144.909V126.909H247.63V129.108H247.792C247.951 128.756 248.181 128.398 248.482 128.034C248.789 127.665 249.187 127.358 249.675 127.114C250.17 126.864 250.783 126.739 251.516 126.739C252.471 126.739 253.352 126.989 254.158 127.489C254.965 127.983 255.61 128.73 256.093 129.73C256.576 130.724 256.817 131.972 256.817 133.472C256.817 134.932 256.582 136.165 256.11 137.17C255.644 138.17 255.008 138.929 254.201 139.446C253.4 139.957 252.502 140.213 251.508 140.213C250.803 140.213 250.204 140.097 249.71 139.864C249.221 139.631 248.82 139.338 248.508 138.986C248.195 138.628 247.957 138.267 247.792 137.903H247.681V144.909H244.05ZM247.604 133.455C247.604 134.233 247.712 134.912 247.928 135.491C248.144 136.071 248.457 136.523 248.866 136.847C249.275 137.165 249.772 137.324 250.357 137.324C250.948 137.324 251.448 137.162 251.857 136.838C252.266 136.509 252.576 136.054 252.786 135.474C253.002 134.889 253.11 134.216 253.11 133.455C253.11 132.699 253.005 132.034 252.795 131.46C252.585 130.886 252.275 130.437 251.866 130.114C251.457 129.79 250.954 129.628 250.357 129.628C249.766 129.628 249.266 129.784 248.857 130.097C248.454 130.409 248.144 130.852 247.928 131.426C247.712 132 247.604 132.676 247.604 133.455ZM270.13 130.642L266.806 130.847C266.749 130.562 266.627 130.307 266.44 130.08C266.252 129.847 266.005 129.662 265.698 129.526C265.397 129.384 265.036 129.312 264.616 129.312C264.053 129.312 263.579 129.432 263.192 129.67C262.806 129.903 262.613 130.216 262.613 130.608C262.613 130.92 262.738 131.185 262.988 131.401C263.238 131.616 263.667 131.79 264.275 131.92L266.644 132.398C267.917 132.659 268.866 133.08 269.491 133.659C270.116 134.239 270.428 135 270.428 135.943C270.428 136.801 270.175 137.554 269.67 138.202C269.17 138.849 268.482 139.355 267.607 139.719C266.738 140.077 265.735 140.256 264.599 140.256C262.866 140.256 261.485 139.895 260.457 139.173C259.434 138.446 258.835 137.457 258.658 136.207L262.229 136.02C262.337 136.548 262.599 136.952 263.013 137.23C263.428 137.503 263.96 137.639 264.607 137.639C265.244 137.639 265.755 137.517 266.141 137.273C266.533 137.023 266.732 136.702 266.738 136.31C266.732 135.98 266.593 135.71 266.32 135.5C266.048 135.284 265.627 135.119 265.059 135.006L262.792 134.554C261.513 134.298 260.562 133.855 259.937 133.224C259.317 132.594 259.008 131.79 259.008 130.812C259.008 129.972 259.235 129.247 259.69 128.639C260.15 128.031 260.795 127.562 261.624 127.233C262.46 126.903 263.437 126.739 264.556 126.739C266.21 126.739 267.511 127.088 268.46 127.787C269.414 128.486 269.971 129.437 270.13 130.642ZM283.621 140.256C282.417 140.256 281.377 140.04 280.502 139.608C279.627 139.176 278.954 138.591 278.482 137.852C278.016 137.108 277.783 136.278 277.783 135.364C277.783 134.682 277.92 134.077 278.192 133.548C278.465 133.02 278.846 132.534 279.335 132.091C279.823 131.642 280.391 131.196 281.039 130.753L284.423 128.528C284.86 128.25 285.181 127.957 285.386 127.651C285.59 127.338 285.692 127 285.692 126.636C285.692 126.29 285.553 125.969 285.275 125.673C284.996 125.378 284.602 125.233 284.09 125.239C283.749 125.239 283.454 125.315 283.204 125.469C282.954 125.616 282.758 125.812 282.616 126.057C282.479 126.295 282.411 126.562 282.411 126.858C282.411 127.222 282.513 127.591 282.718 127.966C282.923 128.341 283.195 128.739 283.536 129.159C283.877 129.574 284.249 130.023 284.653 130.506L292.928 140H289.144L282.241 132.312C281.786 131.795 281.332 131.256 280.877 130.693C280.428 130.125 280.053 129.523 279.752 128.886C279.451 128.244 279.3 127.548 279.3 126.798C279.3 125.952 279.496 125.19 279.888 124.514C280.286 123.838 280.843 123.304 281.559 122.912C282.275 122.514 283.11 122.315 284.065 122.315C284.996 122.315 285.8 122.506 286.477 122.886C287.158 123.261 287.681 123.761 288.045 124.386C288.414 125.006 288.599 125.687 288.599 126.432C288.599 127.256 288.394 128.003 287.985 128.673C287.582 129.338 287.013 129.935 286.281 130.463L282.718 133.028C282.235 133.381 281.877 133.741 281.644 134.111C281.417 134.474 281.303 134.824 281.303 135.159C281.303 135.574 281.406 135.946 281.61 136.276C281.815 136.605 282.104 136.866 282.479 137.06C282.854 137.247 283.295 137.341 283.8 137.341C284.414 137.341 285.019 137.202 285.616 136.923C286.218 136.639 286.763 136.239 287.252 135.722C287.746 135.199 288.141 134.58 288.437 133.864C288.732 133.148 288.88 132.355 288.88 131.486H291.888C291.888 132.554 291.772 133.517 291.539 134.375C291.306 135.227 290.982 135.972 290.567 136.608C290.153 137.239 289.678 137.756 289.144 138.159C288.974 138.267 288.809 138.369 288.65 138.466C288.491 138.562 288.326 138.665 288.156 138.773C287.508 139.295 286.783 139.673 285.982 139.906C285.187 140.139 284.4 140.256 283.621 140.256ZM300.064 140V122.545H306.95C308.274 122.545 309.402 122.798 310.334 123.304C311.266 123.804 311.976 124.5 312.464 125.392C312.959 126.278 313.206 127.301 313.206 128.46C313.206 129.619 312.956 130.642 312.456 131.528C311.956 132.415 311.232 133.105 310.283 133.599C309.339 134.094 308.197 134.341 306.857 134.341H302.467V131.384H306.26C306.97 131.384 307.555 131.261 308.016 131.017C308.482 130.767 308.828 130.423 309.055 129.986C309.288 129.543 309.405 129.034 309.405 128.46C309.405 127.881 309.288 127.375 309.055 126.943C308.828 126.506 308.482 126.168 308.016 125.929C307.55 125.685 306.959 125.562 306.243 125.562H303.754V140H300.064ZM315.535 140V126.909H319.055V129.193H319.191C319.43 128.381 319.83 127.767 320.393 127.352C320.955 126.932 321.603 126.722 322.336 126.722C322.518 126.722 322.714 126.733 322.924 126.756C323.134 126.778 323.319 126.81 323.478 126.849V130.071C323.308 130.02 323.072 129.974 322.771 129.935C322.469 129.895 322.194 129.875 321.944 129.875C321.41 129.875 320.933 129.991 320.512 130.224C320.097 130.452 319.768 130.77 319.523 131.179C319.285 131.588 319.165 132.06 319.165 132.594V140H315.535ZM330.661 140.256C329.337 140.256 328.192 139.974 327.226 139.412C326.266 138.844 325.524 138.054 325.001 137.043C324.479 136.026 324.217 134.847 324.217 133.506C324.217 132.153 324.479 130.972 325.001 129.96C325.524 128.943 326.266 128.153 327.226 127.591C328.192 127.023 329.337 126.739 330.661 126.739C331.984 126.739 333.126 127.023 334.087 127.591C335.053 128.153 335.797 128.943 336.32 129.96C336.842 130.972 337.104 132.153 337.104 133.506C337.104 134.847 336.842 136.026 336.32 137.043C335.797 138.054 335.053 138.844 334.087 139.412C333.126 139.974 331.984 140.256 330.661 140.256ZM330.678 137.443C331.28 137.443 331.783 137.273 332.186 136.932C332.589 136.585 332.893 136.114 333.098 135.517C333.308 134.92 333.413 134.241 333.413 133.48C333.413 132.719 333.308 132.04 333.098 131.443C332.893 130.847 332.589 130.375 332.186 130.028C331.783 129.682 331.28 129.509 330.678 129.509C330.07 129.509 329.558 129.682 329.143 130.028C328.734 130.375 328.425 130.847 328.214 131.443C328.01 132.04 327.908 132.719 327.908 133.48C327.908 134.241 328.01 134.92 328.214 135.517C328.425 136.114 328.734 136.585 329.143 136.932C329.558 137.273 330.07 137.443 330.678 137.443ZM339.464 126.909H343.095V140.648C343.095 141.659 342.896 142.477 342.499 143.102C342.101 143.727 341.53 144.185 340.786 144.474C340.047 144.764 339.163 144.909 338.135 144.909C338.01 144.909 337.891 144.906 337.777 144.901C337.658 144.901 337.533 144.898 337.402 144.892V142.054C337.499 142.06 337.584 142.062 337.658 142.062C337.726 142.068 337.8 142.071 337.879 142.071C338.464 142.071 338.874 141.946 339.107 141.696C339.345 141.452 339.464 141.082 339.464 140.588V126.909ZM341.271 125.222C340.737 125.222 340.277 125.043 339.891 124.685C339.504 124.321 339.311 123.886 339.311 123.381C339.311 122.881 339.504 122.452 339.891 122.094C340.277 121.73 340.737 121.548 341.271 121.548C341.817 121.548 342.28 121.73 342.661 122.094C343.047 122.452 343.24 122.881 343.24 123.381C343.24 123.886 343.047 124.321 342.661 124.685C342.28 125.043 341.817 125.222 341.271 125.222ZM351.969 140.256C350.623 140.256 349.464 139.983 348.492 139.438C347.526 138.886 346.782 138.108 346.259 137.102C345.737 136.091 345.475 134.895 345.475 133.514C345.475 132.168 345.737 130.986 346.259 129.969C346.782 128.952 347.518 128.159 348.467 127.591C349.421 127.023 350.54 126.739 351.825 126.739C352.688 126.739 353.492 126.878 354.237 127.156C354.987 127.429 355.64 127.841 356.197 128.392C356.759 128.943 357.197 129.636 357.509 130.472C357.822 131.301 357.978 132.273 357.978 133.386V134.384H346.924V132.134H354.56C354.56 131.611 354.447 131.148 354.219 130.744C353.992 130.341 353.677 130.026 353.273 129.798C352.876 129.565 352.413 129.449 351.884 129.449C351.333 129.449 350.844 129.577 350.418 129.832C349.998 130.082 349.668 130.42 349.43 130.847C349.191 131.267 349.069 131.736 349.063 132.253V134.392C349.063 135.04 349.183 135.599 349.421 136.071C349.665 136.543 350.009 136.906 350.452 137.162C350.896 137.418 351.421 137.545 352.029 137.545C352.433 137.545 352.802 137.489 353.137 137.375C353.472 137.261 353.759 137.091 353.998 136.864C354.237 136.636 354.418 136.358 354.543 136.028L357.901 136.25C357.731 137.057 357.381 137.761 356.853 138.364C356.33 138.96 355.654 139.426 354.825 139.761C354.001 140.091 353.049 140.256 351.969 140.256ZM366.262 140.256C364.921 140.256 363.768 139.972 362.802 139.403C361.842 138.83 361.103 138.034 360.586 137.017C360.075 136 359.819 134.83 359.819 133.506C359.819 132.165 360.077 130.989 360.594 129.977C361.117 128.96 361.859 128.168 362.819 127.599C363.779 127.026 364.921 126.739 366.245 126.739C367.387 126.739 368.387 126.946 369.245 127.361C370.103 127.776 370.782 128.358 371.282 129.108C371.782 129.858 372.058 130.739 372.109 131.75H368.683C368.586 131.097 368.33 130.571 367.915 130.173C367.506 129.77 366.969 129.568 366.305 129.568C365.742 129.568 365.251 129.722 364.83 130.028C364.415 130.33 364.092 130.77 363.859 131.349C363.626 131.929 363.509 132.631 363.509 133.455C363.509 134.29 363.623 135 363.85 135.585C364.083 136.17 364.41 136.616 364.83 136.923C365.251 137.23 365.742 137.384 366.305 137.384C366.719 137.384 367.092 137.298 367.421 137.128C367.756 136.957 368.032 136.71 368.248 136.386C368.469 136.057 368.614 135.662 368.683 135.202H372.109C372.052 136.202 371.779 137.082 371.29 137.844C370.808 138.599 370.14 139.19 369.288 139.616C368.435 140.043 367.427 140.256 366.262 140.256ZM381.396 126.909V129.636H373.513V126.909H381.396ZM375.303 123.773H378.933V135.977C378.933 136.312 378.984 136.574 379.087 136.761C379.189 136.943 379.331 137.071 379.513 137.145C379.7 137.219 379.916 137.256 380.161 137.256C380.331 137.256 380.501 137.241 380.672 137.213C380.842 137.179 380.973 137.153 381.064 137.136L381.635 139.838C381.453 139.895 381.197 139.96 380.868 140.034C380.538 140.114 380.138 140.162 379.666 140.179C378.791 140.213 378.024 140.097 377.365 139.83C376.712 139.562 376.203 139.148 375.839 138.585C375.476 138.023 375.297 137.312 375.303 136.455V123.773ZM394.489 130.642L391.165 130.847C391.109 130.562 390.987 130.307 390.799 130.08C390.612 129.847 390.364 129.662 390.058 129.526C389.756 129.384 389.396 129.312 388.975 129.312C388.413 129.312 387.938 129.432 387.552 129.67C387.165 129.903 386.972 130.216 386.972 130.608C386.972 130.92 387.097 131.185 387.347 131.401C387.597 131.616 388.026 131.79 388.634 131.92L391.004 132.398C392.276 132.659 393.225 133.08 393.85 133.659C394.475 134.239 394.788 135 394.788 135.943C394.788 136.801 394.535 137.554 394.029 138.202C393.529 138.849 392.842 139.355 391.967 139.719C391.097 140.077 390.094 140.256 388.958 140.256C387.225 140.256 385.844 139.895 384.816 139.173C383.793 138.446 383.194 137.457 383.018 136.207L386.589 136.02C386.697 136.548 386.958 136.952 387.373 137.23C387.788 137.503 388.319 137.639 388.967 137.639C389.603 137.639 390.114 137.517 390.501 137.273C390.893 137.023 391.092 136.702 391.097 136.31C391.092 135.98 390.952 135.71 390.68 135.5C390.407 135.284 389.987 135.119 389.418 135.006L387.151 134.554C385.873 134.298 384.921 133.855 384.296 133.224C383.677 132.594 383.367 131.79 383.367 130.812C383.367 129.972 383.594 129.247 384.049 128.639C384.509 128.031 385.154 127.562 385.984 127.233C386.819 126.903 387.796 126.739 388.915 126.739C390.569 126.739 391.87 127.088 392.819 127.787C393.773 128.486 394.33 129.437 394.489 130.642Z" fill="white"/>
</svg>
