<svg width="459" height="262" viewBox="0 0 459 262" fill="none" xmlns="http://www.w3.org/2000/svg">
<rect width="459" height="262" rx="30" fill="#A2738C"/>
<path d="M37.5284 68V38.9091H43.679V50.9119H56.1648V38.9091H62.3011V68H56.1648V55.983H43.679V68H37.5284ZM77.1165 68.4261C74.91 68.4261 73.0019 67.9574 71.392 67.0199C69.7917 66.0729 68.5559 64.7566 67.6847 63.071C66.8134 61.3759 66.3778 59.411 66.3778 57.1761C66.3778 54.9223 66.8134 52.9527 67.6847 51.267C68.5559 49.572 69.7917 48.2557 71.392 47.3182C73.0019 46.3712 74.91 45.8977 77.1165 45.8977C79.3229 45.8977 81.2263 46.3712 82.8267 47.3182C84.4366 48.2557 85.6771 49.572 86.5483 51.267C87.4195 52.9527 87.8551 54.9223 87.8551 57.1761C87.8551 59.411 87.4195 61.3759 86.5483 63.071C85.6771 64.7566 84.4366 66.0729 82.8267 67.0199C81.2263 67.9574 79.3229 68.4261 77.1165 68.4261ZM77.1449 63.7386C78.1487 63.7386 78.9867 63.4545 79.6591 62.8864C80.3314 62.3087 80.8381 61.5227 81.179 60.5284C81.5294 59.5341 81.7045 58.4025 81.7045 57.1335C81.7045 55.8646 81.5294 54.733 81.179 53.7386C80.8381 52.7443 80.3314 51.9583 79.6591 51.3807C78.9867 50.803 78.1487 50.5142 77.1449 50.5142C76.1316 50.5142 75.2794 50.803 74.5881 51.3807C73.9063 51.9583 73.3902 52.7443 73.0398 53.7386C72.6989 54.733 72.5284 55.8646 72.5284 57.1335C72.5284 58.4025 72.6989 59.5341 73.0398 60.5284C73.3902 61.5227 73.9063 62.3087 74.5881 62.8864C75.2794 63.4545 76.1316 63.7386 77.1449 63.7386ZM91.9034 68V38.9091H97.9545V49.8466H98.1392C98.4044 49.2595 98.7879 48.6629 99.2898 48.0568C99.8011 47.4413 100.464 46.9299 101.278 46.5227C102.102 46.1061 103.125 45.8977 104.347 45.8977C105.938 45.8977 107.405 46.3144 108.75 47.1477C110.095 47.9716 111.17 49.2169 111.974 50.8835C112.779 52.5407 113.182 54.6193 113.182 57.1193C113.182 59.553 112.789 61.608 112.003 63.2841C111.226 64.9508 110.166 66.215 108.821 67.0767C107.486 67.929 105.99 68.3551 104.332 68.3551C103.158 68.3551 102.159 68.161 101.335 67.7727C100.521 67.3845 99.8532 66.8968 99.3324 66.3097C98.8116 65.7131 98.4138 65.1117 98.1392 64.5057H97.8693V68H91.9034ZM97.8267 57.0909C97.8267 58.3883 98.0066 59.5199 98.3665 60.4858C98.7263 61.4517 99.2472 62.2045 99.929 62.7443C100.611 63.2746 101.439 63.5398 102.415 63.5398C103.4 63.5398 104.233 63.2699 104.915 62.7301C105.597 62.1809 106.113 61.4233 106.463 60.4574C106.823 59.482 107.003 58.3598 107.003 57.0909C107.003 55.8314 106.828 54.7235 106.477 53.767C106.127 52.8106 105.611 52.0625 104.929 51.5227C104.247 50.983 103.409 50.7131 102.415 50.7131C101.43 50.7131 100.597 50.9735 99.9148 51.4943C99.2424 52.0152 98.7263 52.7538 98.3665 53.7102C98.0066 54.6667 97.8267 55.7936 97.8267 57.0909ZM117.333 68V38.9091H123.384V49.8466H123.569C123.834 49.2595 124.218 48.6629 124.719 48.0568C125.231 47.4413 125.894 46.9299 126.708 46.5227C127.532 46.1061 128.555 45.8977 129.776 45.8977C131.367 45.8977 132.835 46.3144 134.18 47.1477C135.524 47.9716 136.599 49.2169 137.404 50.8835C138.209 52.5407 138.612 54.6193 138.612 57.1193C138.612 59.553 138.219 61.608 137.433 63.2841C136.656 64.9508 135.595 66.215 134.251 67.0767C132.915 67.929 131.419 68.3551 129.762 68.3551C128.588 68.3551 127.589 68.161 126.765 67.7727C125.951 67.3845 125.283 66.8968 124.762 66.3097C124.241 65.7131 123.844 65.1117 123.569 64.5057H123.299V68H117.333ZM123.256 57.0909C123.256 58.3883 123.436 59.5199 123.796 60.4858C124.156 61.4517 124.677 62.2045 125.359 62.7443C126.04 63.2746 126.869 63.5398 127.844 63.5398C128.829 63.5398 129.663 63.2699 130.344 62.7301C131.026 62.1809 131.542 61.4233 131.893 60.4574C132.253 59.482 132.433 58.3598 132.433 57.0909C132.433 55.8314 132.257 54.7235 131.907 53.767C131.557 52.8106 131.04 52.0625 130.359 51.5227C129.677 50.983 128.839 50.7131 127.844 50.7131C126.86 50.7131 126.026 50.9735 125.344 51.4943C124.672 52.0152 124.156 52.7538 123.796 53.7102C123.436 54.6667 123.256 55.7936 123.256 57.0909ZM142.649 68V46.1818H148.7V68H142.649ZM145.689 43.3693C144.789 43.3693 144.018 43.071 143.374 42.4744C142.739 41.8684 142.422 41.1439 142.422 40.3011C142.422 39.4678 142.739 38.7528 143.374 38.1562C144.018 37.5502 144.789 37.2472 145.689 37.2472C146.589 37.2472 147.356 37.5502 147.99 38.1562C148.634 38.7528 148.956 39.4678 148.956 40.3011C148.956 41.1439 148.634 41.8684 147.99 42.4744C147.356 43.071 146.589 43.3693 145.689 43.3693ZM163.491 68.4261C161.246 68.4261 159.315 67.9716 157.695 67.0625C156.085 66.1439 154.845 64.8466 153.974 63.1705C153.103 61.4848 152.667 59.4915 152.667 57.1903C152.667 54.946 153.103 52.9763 153.974 51.2812C154.845 49.5862 156.071 48.2652 157.653 47.3182C159.244 46.3712 161.109 45.8977 163.249 45.8977C164.689 45.8977 166.029 46.1297 167.269 46.5938C168.519 47.0483 169.608 47.7348 170.536 48.6534C171.474 49.572 172.203 50.7273 172.724 52.1193C173.245 53.5019 173.505 55.1212 173.505 56.9773V58.6392H155.082V54.8892H167.809C167.809 54.018 167.62 53.2462 167.241 52.5739C166.862 51.9015 166.336 51.3759 165.664 50.9972C165.001 50.6089 164.229 50.4148 163.349 50.4148C162.43 50.4148 161.616 50.6278 160.906 51.054C160.205 51.4706 159.656 52.0341 159.258 52.7443C158.86 53.4451 158.656 54.2263 158.647 55.0881V58.6534C158.647 59.733 158.846 60.6657 159.244 61.4517C159.651 62.2377 160.224 62.8438 160.962 63.2699C161.701 63.696 162.577 63.9091 163.59 63.9091C164.263 63.9091 164.878 63.8144 165.437 63.625C165.996 63.4356 166.474 63.1515 166.871 62.7727C167.269 62.3939 167.572 61.9299 167.781 61.3807L173.377 61.75C173.093 63.0947 172.511 64.2689 171.63 65.2727C170.759 66.267 169.632 67.0436 168.249 67.6023C166.876 68.1515 165.29 68.4261 163.491 68.4261ZM195.607 52.4034L190.067 52.7443C189.973 52.2708 189.769 51.8447 189.457 51.4659C189.144 51.0777 188.732 50.7699 188.221 50.5426C187.719 50.3059 187.118 50.1875 186.417 50.1875C185.479 50.1875 184.689 50.3864 184.045 50.7841C183.401 51.1723 183.079 51.6932 183.079 52.3466C183.079 52.8674 183.287 53.3078 183.704 53.6676C184.121 54.0275 184.835 54.3163 185.849 54.5341L189.798 55.3295C191.919 55.7652 193.5 56.4659 194.542 57.4318C195.584 58.3977 196.104 59.6667 196.104 61.2386C196.104 62.6686 195.683 63.9233 194.84 65.0028C194.007 66.0824 192.861 66.9252 191.403 67.5312C189.954 68.1278 188.282 68.4261 186.388 68.4261C183.5 68.4261 181.199 67.8248 179.485 66.6222C177.781 65.41 176.781 63.7623 176.488 61.679L182.44 61.3665C182.62 62.2472 183.055 62.9195 183.746 63.3835C184.438 63.8381 185.323 64.0653 186.403 64.0653C187.463 64.0653 188.316 63.8617 188.96 63.4545C189.613 63.0379 189.944 62.5028 189.954 61.8494C189.944 61.3002 189.712 60.8504 189.258 60.5C188.803 60.1402 188.103 59.8655 187.156 59.6761L183.377 58.9233C181.246 58.4972 179.66 57.7585 178.619 56.7074C177.586 55.6562 177.07 54.3163 177.07 52.6875C177.07 51.286 177.449 50.0786 178.207 49.0653C178.974 48.0521 180.049 47.2708 181.431 46.7216C182.823 46.1723 184.452 45.8977 186.317 45.8977C189.073 45.8977 191.242 46.4801 192.823 47.6449C194.414 48.8097 195.342 50.3958 195.607 52.4034Z" fill="white"/>
<path d="M36.7216 115V97.5455H43.267C44.608 97.5455 45.733 97.7955 46.642 98.2955C47.5568 98.7955 48.2472 99.483 48.7131 100.358C49.1847 101.227 49.4205 102.216 49.4205 103.324C49.4205 104.443 49.1847 105.437 48.7131 106.307C48.2415 107.176 47.5455 107.861 46.625 108.361C45.7045 108.855 44.571 109.102 43.2244 109.102H38.8864V106.503H42.7983C43.5824 106.503 44.2244 106.366 44.7244 106.094C45.2244 105.821 45.5938 105.446 45.8324 104.969C46.0767 104.491 46.1989 103.943 46.1989 103.324C46.1989 102.705 46.0767 102.159 45.8324 101.688C45.5938 101.216 45.2216 100.849 44.7159 100.588C44.2159 100.321 43.571 100.188 42.7812 100.188H39.8835V115H36.7216ZM55.1158 97.5455V115H52.0305V97.5455H55.1158ZM62.0554 115.264C61.2259 115.264 60.4787 115.116 59.8139 114.821C59.1548 114.52 58.6321 114.077 58.2457 113.491C57.8651 112.906 57.6747 112.185 57.6747 111.327C57.6747 110.588 57.8111 109.977 58.0838 109.494C58.3565 109.011 58.7287 108.625 59.2003 108.335C59.6719 108.045 60.2031 107.827 60.794 107.679C61.3906 107.526 62.0071 107.415 62.6435 107.347C63.4105 107.267 64.0327 107.196 64.5099 107.134C64.9872 107.065 65.3338 106.963 65.5497 106.827C65.7713 106.685 65.8821 106.466 65.8821 106.17V106.119C65.8821 105.477 65.6918 104.98 65.3111 104.628C64.9304 104.276 64.3821 104.099 63.6662 104.099C62.9105 104.099 62.3111 104.264 61.8679 104.594C61.4304 104.923 61.1349 105.312 60.9815 105.761L58.1009 105.352C58.3281 104.557 58.7031 103.892 59.2259 103.358C59.7486 102.818 60.3878 102.415 61.1435 102.148C61.8991 101.875 62.7344 101.739 63.6491 101.739C64.2798 101.739 64.9077 101.812 65.5327 101.96C66.1577 102.108 66.7287 102.352 67.2457 102.693C67.7628 103.028 68.1776 103.486 68.4901 104.065C68.8082 104.645 68.9673 105.369 68.9673 106.239V115H66.0014V113.202H65.8991C65.7116 113.565 65.4474 113.906 65.1065 114.224C64.7713 114.537 64.348 114.79 63.8366 114.983C63.331 115.17 62.7372 115.264 62.0554 115.264ZM62.8565 112.997C63.4759 112.997 64.0128 112.875 64.4673 112.631C64.9219 112.381 65.2713 112.051 65.5156 111.642C65.7656 111.233 65.8906 110.787 65.8906 110.304V108.761C65.794 108.841 65.6293 108.915 65.3963 108.983C65.169 109.051 64.9134 109.111 64.6293 109.162C64.3452 109.213 64.0639 109.259 63.7855 109.298C63.5071 109.338 63.2656 109.372 63.0611 109.401C62.6009 109.463 62.1889 109.565 61.8253 109.707C61.4616 109.849 61.1747 110.048 60.9645 110.304C60.7543 110.554 60.6491 110.878 60.6491 111.276C60.6491 111.844 60.8565 112.273 61.2713 112.562C61.6861 112.852 62.2145 112.997 62.8565 112.997ZM73.5185 119.909C73.098 119.909 72.7088 119.875 72.3509 119.807C71.9986 119.744 71.7173 119.67 71.5071 119.585L72.223 117.182C72.6719 117.313 73.0724 117.375 73.4247 117.369C73.777 117.364 74.0866 117.253 74.3537 117.037C74.6264 116.827 74.8565 116.474 75.044 115.98L75.3082 115.273L70.5611 101.909H73.8338L76.8509 111.795H76.9872L80.0128 101.909H83.294L78.0526 116.585C77.8082 117.278 77.4844 117.872 77.081 118.366C76.6776 118.866 76.1832 119.247 75.598 119.509C75.0185 119.776 74.3253 119.909 73.5185 119.909ZM85.429 115V101.909H88.5142V115H85.429ZM86.9801 100.051C86.4915 100.051 86.071 99.8892 85.7188 99.5653C85.3665 99.2358 85.1903 98.8409 85.1903 98.3807C85.1903 97.9148 85.3665 97.5199 85.7188 97.196C86.071 96.8665 86.4915 96.7017 86.9801 96.7017C87.4744 96.7017 87.8949 96.8665 88.2415 97.196C88.5938 97.5199 88.7699 97.9148 88.7699 98.3807C88.7699 98.8409 88.5938 99.2358 88.2415 99.5653C87.8949 99.8892 87.4744 100.051 86.9801 100.051ZM94.772 107.33V115H91.6868V101.909H94.6357V104.134H94.7891C95.0902 103.401 95.5703 102.818 96.2294 102.386C96.8942 101.955 97.7152 101.739 98.6925 101.739C99.5959 101.739 100.383 101.932 101.053 102.318C101.729 102.705 102.252 103.264 102.621 103.997C102.996 104.73 103.181 105.619 103.175 106.665V115H100.09V107.142C100.09 106.267 99.8629 105.582 99.4084 105.088C98.9595 104.594 98.3374 104.347 97.5419 104.347C97.0021 104.347 96.522 104.466 96.1016 104.705C95.6868 104.937 95.3601 105.276 95.1214 105.719C94.8885 106.162 94.772 106.699 94.772 107.33ZM112.005 120.182C110.897 120.182 109.945 120.031 109.15 119.73C108.354 119.435 107.715 119.037 107.232 118.537C106.749 118.037 106.414 117.483 106.227 116.875L109.005 116.202C109.13 116.457 109.312 116.71 109.55 116.96C109.789 117.216 110.11 117.426 110.513 117.591C110.923 117.761 111.437 117.847 112.056 117.847C112.931 117.847 113.656 117.634 114.229 117.207C114.803 116.787 115.09 116.094 115.09 115.128V112.648H114.937C114.778 112.966 114.545 113.293 114.238 113.628C113.937 113.963 113.536 114.244 113.036 114.472C112.542 114.699 111.92 114.812 111.17 114.812C110.164 114.812 109.252 114.577 108.434 114.105C107.621 113.628 106.974 112.918 106.491 111.974C106.013 111.026 105.775 109.838 105.775 108.412C105.775 106.974 106.013 105.761 106.491 104.773C106.974 103.778 107.624 103.026 108.442 102.514C109.261 101.997 110.173 101.739 111.178 101.739C111.945 101.739 112.576 101.869 113.07 102.131C113.57 102.386 113.968 102.696 114.263 103.06C114.559 103.418 114.783 103.756 114.937 104.074H115.107V101.909H118.15V115.213C118.15 116.332 117.883 117.259 117.349 117.991C116.815 118.724 116.085 119.273 115.158 119.636C114.232 120 113.181 120.182 112.005 120.182ZM112.031 112.392C112.684 112.392 113.241 112.233 113.701 111.915C114.161 111.597 114.511 111.139 114.749 110.543C114.988 109.946 115.107 109.23 115.107 108.395C115.107 107.571 114.988 106.849 114.749 106.23C114.516 105.611 114.17 105.131 113.71 104.79C113.255 104.443 112.695 104.27 112.031 104.27C111.343 104.27 110.769 104.449 110.309 104.807C109.849 105.165 109.502 105.656 109.269 106.281C109.036 106.901 108.92 107.605 108.92 108.395C108.92 109.196 109.036 109.898 109.269 110.5C109.508 111.097 109.857 111.562 110.317 111.898C110.783 112.227 111.354 112.392 112.031 112.392ZM142.998 106.273C142.998 108.153 142.646 109.764 141.941 111.105C141.242 112.44 140.288 113.463 139.077 114.173C137.873 114.884 136.506 115.239 134.978 115.239C133.45 115.239 132.08 114.884 130.87 114.173C129.665 113.457 128.711 112.432 128.006 111.097C127.308 109.756 126.958 108.148 126.958 106.273C126.958 104.392 127.308 102.784 128.006 101.449C128.711 100.108 129.665 99.0824 130.87 98.3722C132.08 97.6619 133.45 97.3068 134.978 97.3068C136.506 97.3068 137.873 97.6619 139.077 98.3722C140.288 99.0824 141.242 100.108 141.941 101.449C142.646 102.784 142.998 104.392 142.998 106.273ZM139.819 106.273C139.819 104.949 139.612 103.832 139.197 102.923C138.788 102.009 138.219 101.318 137.492 100.852C136.765 100.381 135.927 100.145 134.978 100.145C134.029 100.145 133.191 100.381 132.464 100.852C131.737 101.318 131.165 102.009 130.751 102.923C130.342 103.832 130.137 104.949 130.137 106.273C130.137 107.597 130.342 108.716 130.751 109.631C131.165 110.54 131.737 111.23 132.464 111.702C133.191 112.168 134.029 112.401 134.978 112.401C135.927 112.401 136.765 112.168 137.492 111.702C138.219 111.23 138.788 110.54 139.197 109.631C139.612 108.716 139.819 107.597 139.819 106.273ZM148.936 107.33V115H145.851V101.909H148.8V104.134H148.953C149.254 103.401 149.734 102.818 150.393 102.386C151.058 101.955 151.879 101.739 152.857 101.739C153.76 101.739 154.547 101.932 155.217 102.318C155.893 102.705 156.416 103.264 156.786 103.997C157.161 104.73 157.345 105.619 157.339 106.665V115H154.254V107.142C154.254 106.267 154.027 105.582 153.572 105.088C153.124 104.594 152.501 104.347 151.706 104.347C151.166 104.347 150.686 104.466 150.266 104.705C149.851 104.937 149.524 105.276 149.286 105.719C149.053 106.162 148.936 106.699 148.936 107.33ZM163.561 97.5455V115H160.476V97.5455H163.561ZM166.734 115V101.909H169.819V115H166.734ZM168.285 100.051C167.796 100.051 167.376 99.8892 167.023 99.5653C166.671 99.2358 166.495 98.8409 166.495 98.3807C166.495 97.9148 166.671 97.5199 167.023 97.196C167.376 96.8665 167.796 96.7017 168.285 96.7017C168.779 96.7017 169.2 96.8665 169.546 97.196C169.898 97.5199 170.075 97.9148 170.075 98.3807C170.075 98.8409 169.898 99.2358 169.546 99.5653C169.2 99.8892 168.779 100.051 168.285 100.051ZM176.077 107.33V115H172.991V101.909H175.94V104.134H176.094C176.395 103.401 176.875 102.818 177.534 102.386C178.199 101.955 179.02 101.739 179.997 101.739C180.901 101.739 181.688 101.932 182.358 102.318C183.034 102.705 183.557 103.264 183.926 103.997C184.301 104.73 184.486 105.619 184.48 106.665V115H181.395V107.142C181.395 106.267 181.168 105.582 180.713 105.088C180.264 104.594 179.642 104.347 178.847 104.347C178.307 104.347 177.827 104.466 177.406 104.705C176.991 104.937 176.665 105.276 176.426 105.719C176.193 106.162 176.077 106.699 176.077 107.33ZM193.412 115.256C192.099 115.256 190.966 114.983 190.011 114.438C189.063 113.886 188.332 113.108 187.821 112.102C187.31 111.091 187.054 109.901 187.054 108.531C187.054 107.185 187.31 106.003 187.821 104.986C188.338 103.963 189.06 103.168 189.986 102.599C190.912 102.026 192 101.739 193.25 101.739C194.057 101.739 194.818 101.869 195.534 102.131C196.256 102.386 196.892 102.784 197.443 103.324C198 103.864 198.438 104.551 198.756 105.386C199.074 106.216 199.233 107.205 199.233 108.352V109.298H188.503V107.219H196.276C196.27 106.628 196.142 106.102 195.892 105.642C195.642 105.176 195.293 104.81 194.844 104.543C194.401 104.276 193.884 104.142 193.293 104.142C192.662 104.142 192.108 104.295 191.631 104.602C191.153 104.903 190.781 105.301 190.514 105.795C190.253 106.284 190.119 106.821 190.114 107.406V109.222C190.114 109.983 190.253 110.636 190.531 111.182C190.81 111.722 191.199 112.136 191.699 112.426C192.199 112.71 192.784 112.852 193.455 112.852C193.903 112.852 194.31 112.79 194.673 112.665C195.037 112.534 195.352 112.344 195.619 112.094C195.886 111.844 196.088 111.534 196.224 111.165L199.105 111.489C198.923 112.25 198.577 112.915 198.065 113.483C197.56 114.045 196.912 114.483 196.122 114.795C195.332 115.102 194.429 115.256 193.412 115.256ZM219.626 103.119C219.484 102.659 219.288 102.247 219.038 101.884C218.793 101.514 218.498 101.199 218.151 100.938C217.81 100.676 217.418 100.48 216.975 100.349C216.532 100.213 216.049 100.145 215.526 100.145C214.589 100.145 213.754 100.381 213.021 100.852C212.288 101.324 211.711 102.017 211.29 102.932C210.876 103.841 210.668 104.949 210.668 106.256C210.668 107.574 210.876 108.69 211.29 109.605C211.705 110.52 212.282 111.216 213.021 111.693C213.759 112.165 214.617 112.401 215.594 112.401C216.481 112.401 217.248 112.23 217.896 111.889C218.549 111.548 219.052 111.065 219.404 110.44C219.756 109.81 219.933 109.071 219.933 108.224L220.648 108.335H215.91V105.864H222.992V107.96C222.992 109.455 222.674 110.747 222.038 111.838C221.401 112.929 220.526 113.77 219.413 114.361C218.299 114.946 217.021 115.239 215.577 115.239C213.969 115.239 212.558 114.878 211.342 114.156C210.131 113.429 209.185 112.398 208.504 111.062C207.827 109.722 207.489 108.131 207.489 106.29C207.489 104.881 207.688 103.622 208.086 102.514C208.489 101.406 209.052 100.466 209.773 99.6932C210.495 98.9148 211.342 98.3239 212.313 97.9205C213.285 97.5114 214.342 97.3068 215.484 97.3068C216.45 97.3068 217.35 97.4489 218.185 97.733C219.021 98.0114 219.762 98.4091 220.41 98.9261C221.063 99.4432 221.6 100.057 222.021 100.767C222.441 101.477 222.717 102.261 222.847 103.119H219.626ZM229.68 115.264C228.851 115.264 228.104 115.116 227.439 114.821C226.78 114.52 226.257 114.077 225.871 113.491C225.49 112.906 225.3 112.185 225.3 111.327C225.3 110.588 225.436 109.977 225.709 109.494C225.982 109.011 226.354 108.625 226.825 108.335C227.297 108.045 227.828 107.827 228.419 107.679C229.016 107.526 229.632 107.415 230.268 107.347C231.036 107.267 231.658 107.196 232.135 107.134C232.612 107.065 232.959 106.963 233.175 106.827C233.396 106.685 233.507 106.466 233.507 106.17V106.119C233.507 105.477 233.317 104.98 232.936 104.628C232.555 104.276 232.007 104.099 231.291 104.099C230.536 104.099 229.936 104.264 229.493 104.594C229.055 104.923 228.76 105.312 228.607 105.761L225.726 105.352C225.953 104.557 226.328 103.892 226.851 103.358C227.374 102.818 228.013 102.415 228.768 102.148C229.524 101.875 230.359 101.739 231.274 101.739C231.905 101.739 232.533 101.812 233.158 101.96C233.783 102.108 234.354 102.352 234.871 102.693C235.388 103.028 235.803 103.486 236.115 104.065C236.433 104.645 236.592 105.369 236.592 106.239V115H233.626V113.202H233.524C233.337 113.565 233.072 113.906 232.732 114.224C232.396 114.537 231.973 114.79 231.462 114.983C230.956 115.17 230.362 115.264 229.68 115.264ZM230.482 112.997C231.101 112.997 231.638 112.875 232.092 112.631C232.547 112.381 232.896 112.051 233.141 111.642C233.391 111.233 233.516 110.787 233.516 110.304V108.761C233.419 108.841 233.254 108.915 233.021 108.983C232.794 109.051 232.538 109.111 232.254 109.162C231.97 109.213 231.689 109.259 231.411 109.298C231.132 109.338 230.891 109.372 230.686 109.401C230.226 109.463 229.814 109.565 229.45 109.707C229.087 109.849 228.8 110.048 228.589 110.304C228.379 110.554 228.274 110.878 228.274 111.276C228.274 111.844 228.482 112.273 228.896 112.562C229.311 112.852 229.839 112.997 230.482 112.997ZM239.695 115V101.909H242.643V104.134H242.797C243.07 103.384 243.521 102.798 244.152 102.378C244.783 101.952 245.536 101.739 246.411 101.739C247.297 101.739 248.044 101.955 248.652 102.386C249.266 102.812 249.697 103.395 249.947 104.134H250.084C250.374 103.406 250.862 102.827 251.55 102.395C252.243 101.957 253.064 101.739 254.013 101.739C255.217 101.739 256.2 102.119 256.962 102.881C257.723 103.642 258.104 104.753 258.104 106.213V115H255.01V106.69C255.01 105.878 254.794 105.284 254.362 104.909C253.93 104.528 253.402 104.338 252.777 104.338C252.033 104.338 251.45 104.571 251.03 105.037C250.615 105.497 250.408 106.097 250.408 106.835V115H247.382V106.562C247.382 105.886 247.178 105.347 246.768 104.943C246.365 104.54 245.837 104.338 245.183 104.338C244.74 104.338 244.337 104.452 243.973 104.679C243.609 104.901 243.32 105.216 243.104 105.625C242.888 106.028 242.78 106.5 242.78 107.04V115H239.695ZM267.029 115.256C265.717 115.256 264.583 114.983 263.629 114.438C262.68 113.886 261.95 113.108 261.438 112.102C260.927 111.091 260.671 109.901 260.671 108.531C260.671 107.185 260.927 106.003 261.438 104.986C261.955 103.963 262.677 103.168 263.603 102.599C264.529 102.026 265.617 101.739 266.867 101.739C267.674 101.739 268.435 101.869 269.151 102.131C269.873 102.386 270.509 102.784 271.06 103.324C271.617 103.864 272.055 104.551 272.373 105.386C272.691 106.216 272.85 107.205 272.85 108.352V109.298H262.12V107.219H269.893C269.887 106.628 269.759 106.102 269.509 105.642C269.259 105.176 268.91 104.81 268.461 104.543C268.018 104.276 267.501 104.142 266.91 104.142C266.279 104.142 265.725 104.295 265.248 104.602C264.771 104.903 264.398 105.301 264.131 105.795C263.87 106.284 263.737 106.821 263.731 107.406V109.222C263.731 109.983 263.87 110.636 264.148 111.182C264.427 111.722 264.816 112.136 265.316 112.426C265.816 112.71 266.401 112.852 267.072 112.852C267.521 112.852 267.927 112.79 268.29 112.665C268.654 112.534 268.969 112.344 269.237 112.094C269.504 111.844 269.705 111.534 269.842 111.165L272.722 111.489C272.54 112.25 272.194 112.915 271.683 113.483C271.177 114.045 270.529 114.483 269.739 114.795C268.95 115.102 268.046 115.256 267.029 115.256ZM285.807 105.369L282.994 105.676C282.915 105.392 282.776 105.125 282.577 104.875C282.384 104.625 282.122 104.423 281.793 104.27C281.463 104.116 281.06 104.04 280.582 104.04C279.94 104.04 279.401 104.179 278.963 104.457C278.531 104.736 278.318 105.097 278.324 105.54C278.318 105.92 278.457 106.23 278.741 106.469C279.031 106.707 279.509 106.903 280.173 107.057L282.406 107.534C283.645 107.801 284.565 108.224 285.168 108.804C285.776 109.384 286.082 110.142 286.088 111.08C286.082 111.903 285.841 112.631 285.364 113.261C284.892 113.886 284.236 114.375 283.395 114.727C282.554 115.08 281.588 115.256 280.497 115.256C278.895 115.256 277.605 114.92 276.628 114.25C275.651 113.574 275.068 112.634 274.881 111.429L277.889 111.139C278.026 111.73 278.315 112.176 278.759 112.477C279.202 112.778 279.778 112.929 280.489 112.929C281.222 112.929 281.81 112.778 282.253 112.477C282.702 112.176 282.926 111.804 282.926 111.361C282.926 110.986 282.781 110.676 282.491 110.432C282.207 110.187 281.764 110 281.162 109.869L278.929 109.401C277.673 109.139 276.744 108.699 276.142 108.08C275.54 107.455 275.241 106.665 275.247 105.71C275.241 104.903 275.46 104.205 275.903 103.614C276.352 103.017 276.974 102.557 277.77 102.233C278.571 101.903 279.494 101.739 280.54 101.739C282.074 101.739 283.281 102.065 284.162 102.719C285.048 103.372 285.597 104.256 285.807 105.369ZM36.7216 141V123.545H43.4034C44.6648 123.545 45.7131 123.744 46.5483 124.142C47.3892 124.534 48.017 125.071 48.4318 125.753C48.8523 126.435 49.0625 127.207 49.0625 128.071C49.0625 128.781 48.9261 129.389 48.6534 129.895C48.3807 130.395 48.0142 130.801 47.554 131.114C47.0938 131.426 46.5795 131.651 46.0114 131.787V131.957C46.6307 131.991 47.2244 132.182 47.7926 132.528C48.3665 132.869 48.8352 133.352 49.1989 133.977C49.5625 134.602 49.7443 135.358 49.7443 136.244C49.7443 137.148 49.5256 137.96 49.0881 138.682C48.6506 139.398 47.9915 139.963 47.1108 140.378C46.2301 140.793 45.1222 141 43.7869 141H36.7216ZM39.8835 138.358H43.2841C44.4318 138.358 45.2585 138.139 45.7642 137.702C46.2756 137.259 46.5312 136.69 46.5312 135.997C46.5312 135.48 46.4034 135.014 46.1477 134.599C45.892 134.179 45.5284 133.849 45.0568 133.611C44.5852 133.366 44.0227 133.244 43.3693 133.244H39.8835V138.358ZM39.8835 130.969H43.0114C43.5568 130.969 44.0483 130.869 44.4858 130.67C44.9233 130.466 45.267 130.179 45.517 129.81C45.7727 129.435 45.9006 128.991 45.9006 128.48C45.9006 127.804 45.6619 127.247 45.1847 126.81C44.7131 126.372 44.0114 126.153 43.0795 126.153H39.8835V130.969ZM52.3587 141V127.909H55.4439V141H52.3587ZM53.9098 126.051C53.4212 126.051 53.0007 125.889 52.6484 125.565C52.2962 125.236 52.12 124.841 52.12 124.381C52.12 123.915 52.2962 123.52 52.6484 123.196C53.0007 122.866 53.4212 122.702 53.9098 122.702C54.4041 122.702 54.8246 122.866 55.1712 123.196C55.5234 123.52 55.6996 123.915 55.6996 124.381C55.6996 124.841 55.5234 125.236 55.1712 125.565C54.8246 125.889 54.4041 126.051 53.9098 126.051ZM61.7017 133.33V141H58.6165V127.909H61.5653V130.134H61.7188C62.0199 129.401 62.5 128.818 63.1591 128.386C63.8239 127.955 64.6449 127.739 65.6222 127.739C66.5256 127.739 67.3125 127.932 67.983 128.318C68.6591 128.705 69.1818 129.264 69.5511 129.997C69.9261 130.73 70.1108 131.619 70.1051 132.665V141H67.0199V133.142C67.0199 132.267 66.7926 131.582 66.3381 131.088C65.8892 130.594 65.267 130.347 64.4716 130.347C63.9318 130.347 63.4517 130.466 63.0312 130.705C62.6165 130.937 62.2898 131.276 62.0511 131.719C61.8182 132.162 61.7017 132.699 61.7017 133.33ZM78.9347 146.182C77.8267 146.182 76.875 146.031 76.0795 145.73C75.2841 145.435 74.6449 145.037 74.1619 144.537C73.679 144.037 73.3438 143.483 73.1562 142.875L75.9347 142.202C76.0597 142.457 76.2415 142.71 76.4801 142.96C76.7188 143.216 77.0398 143.426 77.4432 143.591C77.8523 143.761 78.3665 143.847 78.9858 143.847C79.8608 143.847 80.5852 143.634 81.1591 143.207C81.733 142.787 82.0199 142.094 82.0199 141.128V138.648H81.8665C81.7074 138.966 81.4744 139.293 81.1676 139.628C80.8665 139.963 80.4659 140.244 79.9659 140.472C79.4716 140.699 78.8494 140.812 78.0994 140.812C77.0938 140.812 76.1818 140.577 75.3636 140.105C74.5511 139.628 73.9034 138.918 73.4205 137.974C72.9432 137.026 72.7045 135.838 72.7045 134.412C72.7045 132.974 72.9432 131.761 73.4205 130.773C73.9034 129.778 74.554 129.026 75.3722 128.514C76.1903 127.997 77.1023 127.739 78.108 127.739C78.875 127.739 79.5057 127.869 80 128.131C80.5 128.386 80.8977 128.696 81.1932 129.06C81.4886 129.418 81.7131 129.756 81.8665 130.074H82.0369V127.909H85.0795V141.213C85.0795 142.332 84.8125 143.259 84.2784 143.991C83.7443 144.724 83.0142 145.273 82.0881 145.636C81.1619 146 80.1108 146.182 78.9347 146.182ZM78.9602 138.392C79.6136 138.392 80.1705 138.233 80.6307 137.915C81.0909 137.597 81.4403 137.139 81.679 136.543C81.9176 135.946 82.0369 135.23 82.0369 134.395C82.0369 133.571 81.9176 132.849 81.679 132.23C81.446 131.611 81.0994 131.131 80.6392 130.79C80.1847 130.443 79.625 130.27 78.9602 130.27C78.2727 130.27 77.6989 130.449 77.2386 130.807C76.7784 131.165 76.4318 131.656 76.1989 132.281C75.9659 132.901 75.8494 133.605 75.8494 134.395C75.8494 135.196 75.9659 135.898 76.1989 136.5C76.4375 137.097 76.7869 137.562 77.2472 137.898C77.7131 138.227 78.2841 138.392 78.9602 138.392ZM94.0369 141.256C92.7244 141.256 91.5909 140.983 90.6364 140.438C89.6875 139.886 88.9574 139.108 88.446 138.102C87.9347 137.091 87.679 135.901 87.679 134.531C87.679 133.185 87.9347 132.003 88.446 130.986C88.9631 129.963 89.6847 129.168 90.6108 128.599C91.5369 128.026 92.625 127.739 93.875 127.739C94.6818 127.739 95.4432 127.869 96.1591 128.131C96.8807 128.386 97.517 128.784 98.0682 129.324C98.625 129.864 99.0625 130.551 99.3807 131.386C99.6989 132.216 99.858 133.205 99.858 134.352V135.298H89.1278V133.219H96.9006C96.8949 132.628 96.767 132.102 96.517 131.642C96.267 131.176 95.9176 130.81 95.4688 130.543C95.0256 130.276 94.5085 130.142 93.9176 130.142C93.2869 130.142 92.733 130.295 92.2557 130.602C91.7784 130.903 91.4063 131.301 91.1392 131.795C90.8778 132.284 90.7443 132.821 90.7386 133.406V135.222C90.7386 135.983 90.8778 136.636 91.1562 137.182C91.4347 137.722 91.8239 138.136 92.3239 138.426C92.8239 138.71 93.4091 138.852 94.0795 138.852C94.5284 138.852 94.9347 138.79 95.2983 138.665C95.6619 138.534 95.9773 138.344 96.2443 138.094C96.5114 137.844 96.7131 137.534 96.8494 137.165L99.7301 137.489C99.5483 138.25 99.2017 138.915 98.6903 139.483C98.1847 140.045 97.5369 140.483 96.7472 140.795C95.9574 141.102 95.054 141.256 94.0369 141.256ZM112.231 141L107.305 123.545H110.705L113.85 136.372H114.012L117.37 123.545H120.464L123.83 136.381H123.984L127.129 123.545H130.529L125.603 141H122.484L118.989 128.753H118.853L115.35 141H112.231ZM135.016 141.264C134.187 141.264 133.44 141.116 132.775 140.821C132.116 140.52 131.593 140.077 131.207 139.491C130.826 138.906 130.636 138.185 130.636 137.327C130.636 136.588 130.772 135.977 131.045 135.494C131.317 135.011 131.69 134.625 132.161 134.335C132.633 134.045 133.164 133.827 133.755 133.679C134.352 133.526 134.968 133.415 135.604 133.347C136.371 133.267 136.994 133.196 137.471 133.134C137.948 133.065 138.295 132.963 138.511 132.827C138.732 132.685 138.843 132.466 138.843 132.17V132.119C138.843 131.477 138.653 130.98 138.272 130.628C137.891 130.276 137.343 130.099 136.627 130.099C135.871 130.099 135.272 130.264 134.829 130.594C134.391 130.923 134.096 131.312 133.942 131.761L131.062 131.352C131.289 130.557 131.664 129.892 132.187 129.358C132.71 128.818 133.349 128.415 134.104 128.148C134.86 127.875 135.695 127.739 136.61 127.739C137.241 127.739 137.869 127.812 138.494 127.96C139.119 128.108 139.69 128.352 140.207 128.693C140.724 129.028 141.138 129.486 141.451 130.065C141.769 130.645 141.928 131.369 141.928 132.239V141H138.962V139.202H138.86C138.673 139.565 138.408 139.906 138.067 140.224C137.732 140.537 137.309 140.79 136.798 140.983C136.292 141.17 135.698 141.264 135.016 141.264ZM135.817 138.997C136.437 138.997 136.974 138.875 137.428 138.631C137.883 138.381 138.232 138.051 138.477 137.642C138.727 137.233 138.852 136.787 138.852 136.304V134.761C138.755 134.841 138.59 134.915 138.357 134.983C138.13 135.051 137.874 135.111 137.59 135.162C137.306 135.213 137.025 135.259 136.746 135.298C136.468 135.338 136.227 135.372 136.022 135.401C135.562 135.463 135.15 135.565 134.786 135.707C134.423 135.849 134.136 136.048 133.925 136.304C133.715 136.554 133.61 136.878 133.61 137.276C133.61 137.844 133.817 138.273 134.232 138.562C134.647 138.852 135.175 138.997 135.817 138.997ZM151.567 127.909V130.295H144.042V127.909H151.567ZM145.9 124.773H148.985V137.062C148.985 137.477 149.048 137.795 149.173 138.017C149.303 138.233 149.474 138.381 149.684 138.46C149.894 138.54 150.127 138.58 150.383 138.58C150.576 138.58 150.752 138.565 150.911 138.537C151.076 138.509 151.201 138.483 151.286 138.46L151.806 140.872C151.641 140.929 151.406 140.991 151.099 141.06C150.798 141.128 150.428 141.168 149.991 141.179C149.218 141.202 148.522 141.085 147.903 140.83C147.283 140.568 146.792 140.165 146.428 139.619C146.07 139.074 145.894 138.392 145.9 137.574V124.773ZM159.717 141.256C158.411 141.256 157.288 140.969 156.351 140.395C155.419 139.821 154.7 139.028 154.195 138.017C153.695 137 153.445 135.83 153.445 134.506C153.445 133.176 153.7 132.003 154.212 130.986C154.723 129.963 155.445 129.168 156.376 128.599C157.314 128.026 158.422 127.739 159.7 127.739C160.763 127.739 161.703 127.935 162.521 128.327C163.345 128.713 164.001 129.261 164.49 129.972C164.979 130.676 165.257 131.5 165.325 132.443H162.376C162.257 131.812 161.973 131.287 161.524 130.866C161.081 130.44 160.487 130.227 159.743 130.227C159.112 130.227 158.558 130.398 158.081 130.739C157.604 131.074 157.232 131.557 156.964 132.188C156.703 132.818 156.572 133.574 156.572 134.455C156.572 135.347 156.703 136.114 156.964 136.756C157.226 137.392 157.592 137.884 158.064 138.23C158.541 138.571 159.101 138.741 159.743 138.741C160.197 138.741 160.604 138.656 160.962 138.486C161.325 138.31 161.629 138.057 161.874 137.727C162.118 137.398 162.286 136.997 162.376 136.526H165.325C165.251 137.452 164.979 138.273 164.507 138.989C164.036 139.699 163.393 140.256 162.581 140.659C161.768 141.057 160.814 141.256 159.717 141.256ZM170.944 133.33V141H167.859V123.545H170.876V130.134H171.029C171.336 129.395 171.81 128.812 172.452 128.386C173.1 127.955 173.924 127.739 174.924 127.739C175.833 127.739 176.626 127.929 177.302 128.31C177.978 128.69 178.501 129.247 178.87 129.98C179.245 130.713 179.433 131.608 179.433 132.665V141H176.347V133.142C176.347 132.261 176.12 131.577 175.665 131.088C175.217 130.594 174.586 130.347 173.773 130.347C173.228 130.347 172.739 130.466 172.308 130.705C171.881 130.937 171.546 131.276 171.302 131.719C171.063 132.162 170.944 132.699 170.944 133.33ZM182.577 141V127.909H185.663V141H182.577ZM184.129 126.051C183.64 126.051 183.219 125.889 182.867 125.565C182.515 125.236 182.339 124.841 182.339 124.381C182.339 123.915 182.515 123.52 182.867 123.196C183.219 122.866 183.64 122.702 184.129 122.702C184.623 122.702 185.043 122.866 185.39 123.196C185.742 123.52 185.918 123.915 185.918 124.381C185.918 124.841 185.742 125.236 185.39 125.565C185.043 125.889 184.623 126.051 184.129 126.051ZM191.92 133.33V141H188.835V127.909H191.784V130.134H191.938C192.239 129.401 192.719 128.818 193.378 128.386C194.043 127.955 194.864 127.739 195.841 127.739C196.744 127.739 197.531 127.932 198.202 128.318C198.878 128.705 199.401 129.264 199.77 129.997C200.145 130.73 200.33 131.619 200.324 132.665V141H197.239V133.142C197.239 132.267 197.011 131.582 196.557 131.088C196.108 130.594 195.486 130.347 194.69 130.347C194.151 130.347 193.67 130.466 193.25 130.705C192.835 130.937 192.509 131.276 192.27 131.719C192.037 132.162 191.92 132.699 191.92 133.33ZM209.153 146.182C208.045 146.182 207.094 146.031 206.298 145.73C205.503 145.435 204.864 145.037 204.381 144.537C203.898 144.037 203.562 143.483 203.375 142.875L206.153 142.202C206.278 142.457 206.46 142.71 206.699 142.96C206.938 143.216 207.259 143.426 207.662 143.591C208.071 143.761 208.585 143.847 209.205 143.847C210.08 143.847 210.804 143.634 211.378 143.207C211.952 142.787 212.239 142.094 212.239 141.128V138.648H212.085C211.926 138.966 211.693 139.293 211.386 139.628C211.085 139.963 210.685 140.244 210.185 140.472C209.69 140.699 209.068 140.812 208.318 140.812C207.312 140.812 206.401 140.577 205.582 140.105C204.77 139.628 204.122 138.918 203.639 137.974C203.162 137.026 202.923 135.838 202.923 134.412C202.923 132.974 203.162 131.761 203.639 130.773C204.122 129.778 204.773 129.026 205.591 128.514C206.409 127.997 207.321 127.739 208.327 127.739C209.094 127.739 209.724 127.869 210.219 128.131C210.719 128.386 211.116 128.696 211.412 129.06C211.707 129.418 211.932 129.756 212.085 130.074H212.256V127.909H215.298V141.213C215.298 142.332 215.031 143.259 214.497 143.991C213.963 144.724 213.233 145.273 212.307 145.636C211.381 146 210.33 146.182 209.153 146.182ZM209.179 138.392C209.832 138.392 210.389 138.233 210.849 137.915C211.31 137.597 211.659 137.139 211.898 136.543C212.136 135.946 212.256 135.23 212.256 134.395C212.256 133.571 212.136 132.849 211.898 132.23C211.665 131.611 211.318 131.131 210.858 130.79C210.403 130.443 209.844 130.27 209.179 130.27C208.491 130.27 207.918 130.449 207.457 130.807C206.997 131.165 206.651 131.656 206.418 132.281C206.185 132.901 206.068 133.605 206.068 134.395C206.068 135.196 206.185 135.898 206.418 136.5C206.656 137.097 207.006 137.562 207.466 137.898C207.932 138.227 208.503 138.392 209.179 138.392ZM51.6619 155.435H48.4744C48.3835 154.912 48.2159 154.449 47.9716 154.045C47.7273 153.636 47.4233 153.29 47.0597 153.006C46.696 152.722 46.2813 152.509 45.8153 152.366C45.3551 152.219 44.858 152.145 44.3239 152.145C43.375 152.145 42.5341 152.384 41.8011 152.861C41.0682 153.332 40.4943 154.026 40.0795 154.94C39.6648 155.849 39.4574 156.96 39.4574 158.273C39.4574 159.608 39.6648 160.733 40.0795 161.648C40.5 162.557 41.0739 163.244 41.8011 163.71C42.5341 164.17 43.3722 164.401 44.3153 164.401C44.8381 164.401 45.3267 164.332 45.7812 164.196C46.2415 164.054 46.6534 163.847 47.017 163.574C47.3864 163.301 47.696 162.966 47.946 162.568C48.2017 162.17 48.3778 161.716 48.4744 161.205L51.6619 161.222C51.5426 162.051 51.2841 162.83 50.8864 163.557C50.4943 164.284 49.9801 164.926 49.3438 165.483C48.7074 166.034 47.9631 166.466 47.1108 166.778C46.2585 167.085 45.3125 167.239 44.2727 167.239C42.7386 167.239 41.3693 166.884 40.1648 166.173C38.9602 165.463 38.0114 164.438 37.3182 163.097C36.625 161.756 36.2784 160.148 36.2784 158.273C36.2784 156.392 36.6278 154.784 37.3267 153.449C38.0256 152.108 38.9773 151.082 40.1818 150.372C41.3864 149.662 42.75 149.307 44.2727 149.307C45.2443 149.307 46.1477 149.443 46.983 149.716C47.8182 149.989 48.5625 150.389 49.2159 150.918C49.8693 151.44 50.4063 152.082 50.8267 152.844C51.2528 153.599 51.5313 154.463 51.6619 155.435ZM57.5064 159.33V167H54.4212V149.545H57.4382V156.134H57.5916C57.8984 155.395 58.3729 154.812 59.0149 154.386C59.6626 153.955 60.4865 153.739 61.4865 153.739C62.3956 153.739 63.1882 153.929 63.8643 154.31C64.5405 154.69 65.0632 155.247 65.4325 155.98C65.8075 156.713 65.995 157.608 65.995 158.665V167H62.9098V159.142C62.9098 158.261 62.6825 157.577 62.228 157.088C61.7791 156.594 61.1484 156.347 60.3359 156.347C59.7905 156.347 59.3018 156.466 58.87 156.705C58.4439 156.937 58.1087 157.276 57.8643 157.719C57.6257 158.162 57.5064 158.699 57.5064 159.33ZM74.9354 167.256C73.6229 167.256 72.4893 166.983 71.5348 166.438C70.5859 165.886 69.8558 165.108 69.3445 164.102C68.8331 163.091 68.5774 161.901 68.5774 160.531C68.5774 159.185 68.8331 158.003 69.3445 156.986C69.8615 155.963 70.5831 155.168 71.5092 154.599C72.4354 154.026 73.5234 153.739 74.7734 153.739C75.5803 153.739 76.3416 153.869 77.0575 154.131C77.7791 154.386 78.4155 154.784 78.9666 155.324C79.5234 155.864 79.9609 156.551 80.2791 157.386C80.5973 158.216 80.7564 159.205 80.7564 160.352V161.298H70.0263V159.219H77.799C77.7933 158.628 77.6655 158.102 77.4155 157.642C77.1655 157.176 76.8161 156.81 76.3672 156.543C75.924 156.276 75.407 156.142 74.8161 156.142C74.1854 156.142 73.6314 156.295 73.1541 156.602C72.6768 156.903 72.3047 157.301 72.0376 157.795C71.7763 158.284 71.6428 158.821 71.6371 159.406V161.222C71.6371 161.983 71.7763 162.636 72.0547 163.182C72.3331 163.722 72.7223 164.136 73.2223 164.426C73.7223 164.71 74.3075 164.852 74.978 164.852C75.4268 164.852 75.8331 164.79 76.1967 164.665C76.5604 164.534 76.8757 164.344 77.1428 164.094C77.4098 163.844 77.6115 163.534 77.7479 163.165L80.6286 163.489C80.4467 164.25 80.1001 164.915 79.5888 165.483C79.0831 166.045 78.4354 166.483 77.6456 166.795C76.8558 167.102 75.9524 167.256 74.9354 167.256ZM93.7131 157.369L90.9006 157.676C90.821 157.392 90.6818 157.125 90.483 156.875C90.2898 156.625 90.0284 156.423 89.6989 156.27C89.3693 156.116 88.9659 156.04 88.4886 156.04C87.8466 156.04 87.3068 156.179 86.8693 156.457C86.4375 156.736 86.2244 157.097 86.2301 157.54C86.2244 157.92 86.3636 158.23 86.6477 158.469C86.9375 158.707 87.4148 158.903 88.0795 159.057L90.3125 159.534C91.5511 159.801 92.4716 160.224 93.0739 160.804C93.6818 161.384 93.9886 162.142 93.9943 163.08C93.9886 163.903 93.7472 164.631 93.2699 165.261C92.7983 165.886 92.142 166.375 91.3011 166.727C90.4602 167.08 89.4943 167.256 88.4034 167.256C86.8011 167.256 85.5114 166.92 84.5341 166.25C83.5568 165.574 82.9744 164.634 82.7869 163.429L85.7955 163.139C85.9318 163.73 86.2216 164.176 86.6648 164.477C87.108 164.778 87.6847 164.929 88.3949 164.929C89.1278 164.929 89.7159 164.778 90.1591 164.477C90.608 164.176 90.8324 163.804 90.8324 163.361C90.8324 162.986 90.6875 162.676 90.3977 162.432C90.1136 162.187 89.6705 162 89.0682 161.869L86.8352 161.401C85.5795 161.139 84.6506 160.699 84.0483 160.08C83.446 159.455 83.1477 158.665 83.1534 157.71C83.1477 156.903 83.3665 156.205 83.8097 155.614C84.2585 155.017 84.8807 154.557 85.6761 154.233C86.4773 153.903 87.4006 153.739 88.446 153.739C89.9801 153.739 91.1875 154.065 92.0682 154.719C92.9545 155.372 93.5028 156.256 93.7131 157.369ZM106.885 157.369L104.072 157.676C103.993 157.392 103.854 157.125 103.655 156.875C103.462 156.625 103.2 156.423 102.871 156.27C102.541 156.116 102.138 156.04 101.661 156.04C101.018 156.04 100.479 156.179 100.041 156.457C99.6094 156.736 99.3963 157.097 99.402 157.54C99.3963 157.92 99.5355 158.23 99.8196 158.469C100.109 158.707 100.587 158.903 101.251 159.057L103.484 159.534C104.723 159.801 105.643 160.224 106.246 160.804C106.854 161.384 107.161 162.142 107.166 163.08C107.161 163.903 106.919 164.631 106.442 165.261C105.97 165.886 105.314 166.375 104.473 166.727C103.632 167.08 102.666 167.256 101.575 167.256C99.973 167.256 98.6832 166.92 97.706 166.25C96.7287 165.574 96.1463 164.634 95.9588 163.429L98.9673 163.139C99.1037 163.73 99.3935 164.176 99.8366 164.477C100.28 164.778 100.857 164.929 101.567 164.929C102.3 164.929 102.888 164.778 103.331 164.477C103.78 164.176 104.004 163.804 104.004 163.361C104.004 162.986 103.859 162.676 103.57 162.432C103.286 162.187 102.842 162 102.24 161.869L100.007 161.401C98.7514 161.139 97.8224 160.699 97.2202 160.08C96.6179 159.455 96.3196 158.665 96.3253 157.71C96.3196 156.903 96.5384 156.205 96.9815 155.614C97.4304 155.017 98.0526 154.557 98.848 154.233C99.6491 153.903 100.572 153.739 101.618 153.739C103.152 153.739 104.359 154.065 105.24 154.719C106.126 155.372 106.675 156.256 106.885 157.369ZM46.2074 180.344C46.1278 179.599 45.7926 179.02 45.2017 178.605C44.6165 178.19 43.8551 177.983 42.9176 177.983C42.2585 177.983 41.6932 178.082 41.2216 178.281C40.75 178.48 40.3892 178.75 40.1392 179.091C39.8892 179.432 39.7614 179.821 39.7557 180.259C39.7557 180.622 39.8381 180.937 40.0028 181.205C40.1733 181.472 40.4034 181.699 40.6932 181.886C40.983 182.068 41.304 182.222 41.6562 182.347C42.0085 182.472 42.3636 182.577 42.7216 182.662L44.358 183.071C45.017 183.224 45.6506 183.432 46.2585 183.693C46.8722 183.955 47.4205 184.284 47.9034 184.682C48.392 185.08 48.7784 185.56 49.0625 186.122C49.3466 186.685 49.4886 187.344 49.4886 188.099C49.4886 189.122 49.2273 190.023 48.7045 190.801C48.1818 191.574 47.4261 192.179 46.4375 192.616C45.4545 193.048 44.2642 193.264 42.8665 193.264C41.5085 193.264 40.3295 193.054 39.3295 192.634C38.3352 192.213 37.5568 191.599 36.9943 190.793C36.4375 189.986 36.1364 189.003 36.0909 187.844H39.2017C39.2472 188.452 39.4347 188.957 39.7642 189.361C40.0938 189.764 40.5227 190.065 41.0511 190.264C41.5852 190.463 42.1818 190.562 42.8409 190.562C43.5284 190.562 44.1307 190.46 44.6477 190.256C45.1705 190.045 45.5795 189.756 45.875 189.386C46.1705 189.011 46.321 188.574 46.3267 188.074C46.321 187.619 46.1875 187.244 45.9261 186.949C45.6648 186.648 45.2983 186.398 44.8267 186.199C44.3608 185.994 43.8153 185.812 43.1903 185.653L41.2045 185.142C39.767 184.773 38.6307 184.213 37.7955 183.463C36.9659 182.707 36.5511 181.705 36.5511 180.455C36.5511 179.426 36.8295 178.526 37.3864 177.753C37.9489 176.98 38.7131 176.381 39.679 175.955C40.6449 175.523 41.7386 175.307 42.9602 175.307C44.1989 175.307 45.2841 175.523 46.2159 175.955C47.1534 176.381 47.8892 176.974 48.4233 177.736C48.9574 178.491 49.233 179.361 49.25 180.344H46.2074ZM54.8729 193L51.174 179.909H54.3189L56.62 189.114H56.7393L59.0916 179.909H62.2024L64.5547 189.062H64.6825L66.9496 179.909H70.103L66.3956 193H63.1825L60.728 184.153H60.549L58.0945 193H54.8729ZM72.2571 193V179.909H75.3423V193H72.2571ZM73.8082 178.051C73.3196 178.051 72.8991 177.889 72.5469 177.565C72.1946 177.236 72.0185 176.841 72.0185 176.381C72.0185 175.915 72.1946 175.52 72.5469 175.196C72.8991 174.866 73.3196 174.702 73.8082 174.702C74.3026 174.702 74.723 174.866 75.0696 175.196C75.4219 175.52 75.598 175.915 75.598 176.381C75.598 176.841 75.4219 177.236 75.0696 177.565C74.723 177.889 74.3026 178.051 73.8082 178.051ZM78.5149 193V179.909H81.4638V182.134H81.6172C81.8899 181.384 82.3416 180.798 82.9723 180.378C83.603 179.952 84.3558 179.739 85.2308 179.739C86.1172 179.739 86.8643 179.955 87.4723 180.386C88.0859 180.812 88.5178 181.395 88.7678 182.134H88.9041C89.1939 181.406 89.6825 180.827 90.37 180.395C91.0632 179.957 91.8842 179.739 92.8331 179.739C94.0376 179.739 95.0206 180.119 95.782 180.881C96.5433 181.642 96.924 182.753 96.924 184.213V193H93.8303V184.69C93.8303 183.878 93.6143 183.284 93.1825 182.909C92.7507 182.528 92.2223 182.338 91.5973 182.338C90.853 182.338 90.2706 182.571 89.8501 183.037C89.4354 183.497 89.228 184.097 89.228 184.835V193H86.2024V184.562C86.2024 183.886 85.9979 183.347 85.5888 182.943C85.1854 182.54 84.657 182.338 84.0036 182.338C83.5604 182.338 83.157 182.452 82.7933 182.679C82.4297 182.901 82.1399 183.216 81.924 183.625C81.7081 184.028 81.6001 184.5 81.6001 185.04V193H78.5149ZM100.054 193V179.909H103.003V182.134H103.156C103.429 181.384 103.881 180.798 104.511 180.378C105.142 179.952 105.895 179.739 106.77 179.739C107.656 179.739 108.403 179.955 109.011 180.386C109.625 180.812 110.057 181.395 110.307 182.134H110.443C110.733 181.406 111.222 180.827 111.909 180.395C112.602 179.957 113.423 179.739 114.372 179.739C115.577 179.739 116.56 180.119 117.321 180.881C118.082 181.642 118.463 182.753 118.463 184.213V193H115.369V184.69C115.369 183.878 115.153 183.284 114.722 182.909C114.29 182.528 113.761 182.338 113.136 182.338C112.392 182.338 111.81 182.571 111.389 183.037C110.974 183.497 110.767 184.097 110.767 184.835V193H107.741V184.562C107.741 183.886 107.537 183.347 107.128 182.943C106.724 182.54 106.196 182.338 105.543 182.338C105.099 182.338 104.696 182.452 104.332 182.679C103.969 182.901 103.679 183.216 103.463 183.625C103.247 184.028 103.139 184.5 103.139 185.04V193H100.054ZM121.593 193V179.909H124.678V193H121.593ZM123.144 178.051C122.656 178.051 122.235 177.889 121.883 177.565C121.531 177.236 121.354 176.841 121.354 176.381C121.354 175.915 121.531 175.52 121.883 175.196C122.235 174.866 122.656 174.702 123.144 174.702C123.638 174.702 124.059 174.866 124.406 175.196C124.758 175.52 124.934 175.915 124.934 176.381C124.934 176.841 124.758 177.236 124.406 177.565C124.059 177.889 123.638 178.051 123.144 178.051ZM130.936 185.33V193H127.851V179.909H130.8V182.134H130.953C131.254 181.401 131.734 180.818 132.393 180.386C133.058 179.955 133.879 179.739 134.857 179.739C135.76 179.739 136.547 179.932 137.217 180.318C137.893 180.705 138.416 181.264 138.786 181.997C139.161 182.73 139.345 183.619 139.339 184.665V193H136.254V185.142C136.254 184.267 136.027 183.582 135.572 183.088C135.124 182.594 134.501 182.347 133.706 182.347C133.166 182.347 132.686 182.466 132.266 182.705C131.851 182.937 131.524 183.276 131.286 183.719C131.053 184.162 130.936 184.699 130.936 185.33ZM148.169 198.182C147.061 198.182 146.109 198.031 145.314 197.73C144.518 197.435 143.879 197.037 143.396 196.537C142.913 196.037 142.578 195.483 142.391 194.875L145.169 194.202C145.294 194.457 145.476 194.71 145.714 194.96C145.953 195.216 146.274 195.426 146.678 195.591C147.087 195.761 147.601 195.847 148.22 195.847C149.095 195.847 149.82 195.634 150.393 195.207C150.967 194.787 151.254 194.094 151.254 193.128V190.648H151.101C150.942 190.966 150.709 191.293 150.402 191.628C150.101 191.963 149.7 192.244 149.2 192.472C148.706 192.699 148.084 192.812 147.334 192.812C146.328 192.812 145.416 192.577 144.598 192.105C143.786 191.628 143.138 190.918 142.655 189.974C142.178 189.026 141.939 187.838 141.939 186.412C141.939 184.974 142.178 183.761 142.655 182.773C143.138 181.778 143.788 181.026 144.607 180.514C145.425 179.997 146.337 179.739 147.342 179.739C148.109 179.739 148.74 179.869 149.234 180.131C149.734 180.386 150.132 180.696 150.428 181.06C150.723 181.418 150.947 181.756 151.101 182.074H151.271V179.909H154.314V193.213C154.314 194.332 154.047 195.259 153.513 195.991C152.979 196.724 152.249 197.273 151.322 197.636C150.396 198 149.345 198.182 148.169 198.182ZM148.195 190.392C148.848 190.392 149.405 190.233 149.865 189.915C150.325 189.597 150.675 189.139 150.913 188.543C151.152 187.946 151.271 187.23 151.271 186.395C151.271 185.571 151.152 184.849 150.913 184.23C150.68 183.611 150.334 183.131 149.874 182.79C149.419 182.443 148.859 182.27 148.195 182.27C147.507 182.27 146.933 182.449 146.473 182.807C146.013 183.165 145.666 183.656 145.433 184.281C145.2 184.901 145.084 185.605 145.084 186.395C145.084 187.196 145.2 187.898 145.433 188.5C145.672 189.097 146.021 189.562 146.482 189.898C146.947 190.227 147.518 190.392 148.195 190.392Z" fill="white"/>
</svg>
