<svg width="291" height="321" viewBox="0 0 291 321" fill="none" xmlns="http://www.w3.org/2000/svg">
<rect width="291" height="321" rx="30" fill="#9E9E9E"/>
<path d="M42.3097 45.2756C42.196 44.1297 41.7083 43.2396 40.8466 42.6051C39.9848 41.9706 38.8153 41.6534 37.3381 41.6534C36.3343 41.6534 35.4867 41.7955 34.7955 42.0795C34.1042 42.3542 33.5739 42.7377 33.2045 43.2301C32.8447 43.7225 32.6648 44.2812 32.6648 44.9062C32.6458 45.4271 32.7547 45.8816 32.9915 46.2699C33.2377 46.6581 33.5739 46.9943 34 47.2784C34.4261 47.553 34.9186 47.7945 35.4773 48.0028C36.036 48.2017 36.6326 48.3722 37.267 48.5142L39.8807 49.1392C41.1496 49.4233 42.3144 49.8021 43.375 50.2756C44.4356 50.7491 45.3542 51.3314 46.1307 52.0227C46.9072 52.714 47.5085 53.5284 47.9347 54.4659C48.3703 55.4034 48.5928 56.4782 48.6023 57.6903C48.5928 59.4706 48.1383 61.0142 47.2386 62.321C46.3485 63.6184 45.0606 64.6269 43.375 65.3466C41.6989 66.0568 39.6771 66.4119 37.3097 66.4119C34.9612 66.4119 32.9157 66.0521 31.1733 65.3324C29.4403 64.6127 28.0862 63.5473 27.1108 62.1364C26.1449 60.7159 25.6383 58.9593 25.5909 56.8665H31.5426C31.6089 57.8419 31.8883 58.6562 32.3807 59.3097C32.8826 59.9536 33.5502 60.4413 34.3835 60.7727C35.2263 61.0947 36.178 61.2557 37.2386 61.2557C38.2803 61.2557 39.1847 61.1042 39.9517 60.8011C40.7282 60.4981 41.3295 60.0767 41.7557 59.5369C42.1818 58.9972 42.3949 58.3769 42.3949 57.6761C42.3949 57.0227 42.2008 56.4735 41.8125 56.0284C41.4337 55.5833 40.875 55.2045 40.1364 54.892C39.4072 54.5795 38.5123 54.2955 37.4517 54.0398L34.2841 53.2443C31.8314 52.6477 29.8949 51.715 28.4744 50.446C27.054 49.1771 26.3485 47.4678 26.358 45.3182C26.3485 43.5568 26.8172 42.018 27.7642 40.7017C28.7206 39.3854 30.0322 38.358 31.6989 37.6193C33.3655 36.8807 35.2595 36.5114 37.3807 36.5114C39.5398 36.5114 41.4242 36.8807 43.0341 37.6193C44.6534 38.358 45.9129 39.3854 46.8125 40.7017C47.7121 42.018 48.1761 43.5426 48.2045 45.2756H42.3097ZM62.4837 66.4261C60.2772 66.4261 58.3691 65.9574 56.7592 65.0199C55.1589 64.0729 53.9231 62.7566 53.0518 61.071C52.1806 59.3759 51.745 57.411 51.745 55.1761C51.745 52.9223 52.1806 50.9527 53.0518 49.267C53.9231 47.572 55.1589 46.2557 56.7592 45.3182C58.3691 44.3712 60.2772 43.8977 62.4837 43.8977C64.6901 43.8977 66.5935 44.3712 68.1939 45.3182C69.8037 46.2557 71.0443 47.572 71.9155 49.267C72.7867 50.9527 73.2223 52.9223 73.2223 55.1761C73.2223 57.411 72.7867 59.3759 71.9155 61.071C71.0443 62.7566 69.8037 64.0729 68.1939 65.0199C66.5935 65.9574 64.6901 66.4261 62.4837 66.4261ZM62.5121 61.7386C63.5159 61.7386 64.3539 61.4545 65.0263 60.8864C65.6986 60.3087 66.2053 59.5227 66.5462 58.5284C66.8965 57.5341 67.0717 56.4025 67.0717 55.1335C67.0717 53.8646 66.8965 52.733 66.5462 51.7386C66.2053 50.7443 65.6986 49.9583 65.0263 49.3807C64.3539 48.803 63.5159 48.5142 62.5121 48.5142C61.4988 48.5142 60.6465 48.803 59.9553 49.3807C59.2734 49.9583 58.7573 50.7443 58.407 51.7386C58.0661 52.733 57.8956 53.8646 57.8956 55.1335C57.8956 56.4025 58.0661 57.5341 58.407 58.5284C58.7573 59.5227 59.2734 60.3087 59.9553 60.8864C60.6465 61.4545 61.4988 61.7386 62.5121 61.7386ZM87.0149 66.4261C84.7801 66.4261 82.8577 65.9527 81.2479 65.0057C79.6475 64.0492 78.4164 62.7235 77.5547 61.0284C76.7024 59.3333 76.2763 57.3826 76.2763 55.1761C76.2763 52.9413 76.7071 50.9811 77.5689 49.2955C78.4401 47.6004 79.6759 46.2794 81.2763 45.3324C82.8767 44.3759 84.7801 43.8977 86.9865 43.8977C88.8899 43.8977 90.5566 44.2434 91.9865 44.9347C93.4164 45.6259 94.5481 46.5966 95.3814 47.8466C96.2147 49.0966 96.674 50.5644 96.7592 52.25H91.049C90.888 51.161 90.4619 50.285 89.7706 49.6222C89.0888 48.9498 88.1939 48.6136 87.0859 48.6136C86.1484 48.6136 85.3293 48.8693 84.6286 49.3807C83.9373 49.8826 83.3975 50.6165 83.0092 51.5824C82.621 52.5483 82.4268 53.7178 82.4268 55.0909C82.4268 56.483 82.6162 57.6667 82.995 58.642C83.3833 59.6174 83.9278 60.3608 84.6286 60.8722C85.3293 61.3835 86.1484 61.6392 87.0859 61.6392C87.7772 61.6392 88.3975 61.4972 88.9467 61.2131C89.5054 60.929 89.9647 60.517 90.3246 59.9773C90.6939 59.428 90.9354 58.7699 91.049 58.0028H96.7592C96.6645 59.6695 96.21 61.1373 95.3956 62.4062C94.5907 63.6657 93.478 64.6506 92.0575 65.3608C90.6371 66.071 88.9562 66.4261 87.0149 66.4261ZM100.634 66V44.1818H106.685V66H100.634ZM103.673 41.3693C102.774 41.3693 102.002 41.071 101.358 40.4744C100.723 39.8684 100.406 39.1439 100.406 38.3011C100.406 37.4678 100.723 36.7528 101.358 36.1562C102.002 35.5502 102.774 35.2472 103.673 35.2472C104.573 35.2472 105.34 35.5502 105.974 36.1562C106.618 36.7528 106.94 37.4678 106.94 38.3011C106.94 39.1439 106.618 39.8684 105.974 40.4744C105.34 41.071 104.573 41.3693 103.673 41.3693ZM117.754 66.4119C116.362 66.4119 115.121 66.1705 114.032 65.6875C112.943 65.1951 112.081 64.4706 111.447 63.5142C110.822 62.5483 110.509 61.3456 110.509 59.9062C110.509 58.6941 110.732 57.6761 111.177 56.8523C111.622 56.0284 112.228 55.3655 112.995 54.8636C113.762 54.3617 114.633 53.983 115.609 53.7273C116.594 53.4716 117.626 53.2917 118.705 53.1875C119.974 53.0549 120.997 52.9318 121.773 52.8182C122.55 52.6951 123.113 52.5152 123.464 52.2784C123.814 52.0417 123.989 51.6913 123.989 51.2273V51.142C123.989 50.2424 123.705 49.5464 123.137 49.054C122.578 48.5616 121.783 48.3153 120.751 48.3153C119.662 48.3153 118.795 48.5568 118.151 49.0398C117.507 49.5133 117.081 50.1098 116.873 50.8295L111.276 50.375C111.56 49.0492 112.119 47.9034 112.952 46.9375C113.786 45.9621 114.861 45.214 116.177 44.6932C117.503 44.1629 119.037 43.8977 120.779 43.8977C121.991 43.8977 123.151 44.0398 124.259 44.3239C125.377 44.608 126.366 45.0483 127.228 45.6449C128.099 46.2415 128.786 47.0085 129.288 47.946C129.79 48.8741 130.04 49.9867 130.04 51.2841V66H124.302V62.9744H124.131C123.781 63.6562 123.312 64.2576 122.725 64.7784C122.138 65.2898 121.433 65.6922 120.609 65.9858C119.785 66.2699 118.833 66.4119 117.754 66.4119ZM119.487 62.2358C120.377 62.2358 121.163 62.0606 121.844 61.7102C122.526 61.3504 123.061 60.8674 123.45 60.2614C123.838 59.6553 124.032 58.9687 124.032 58.2017V55.8864C123.843 56.0095 123.582 56.1231 123.251 56.2273C122.929 56.322 122.564 56.4119 122.157 56.4972C121.75 56.5729 121.343 56.6439 120.935 56.7102C120.528 56.767 120.159 56.8191 119.827 56.8665C119.117 56.9706 118.497 57.1364 117.967 57.3636C117.436 57.5909 117.024 57.8987 116.731 58.2869C116.437 58.6657 116.29 59.1392 116.29 59.7074C116.29 60.5312 116.589 61.161 117.185 61.5966C117.791 62.0227 118.558 62.2358 119.487 62.2358ZM140.786 36.9091V66H134.735V36.9091H140.786ZM163.787 50.4034L158.247 50.7443C158.152 50.2708 157.949 49.8447 157.636 49.4659C157.324 49.0777 156.912 48.7699 156.401 48.5426C155.899 48.3059 155.297 48.1875 154.597 48.1875C153.659 48.1875 152.868 48.3864 152.224 48.7841C151.58 49.1723 151.259 49.6932 151.259 50.3466C151.259 50.8674 151.467 51.3078 151.884 51.6676C152.3 52.0275 153.015 52.3163 154.028 52.5341L157.977 53.3295C160.098 53.7652 161.68 54.4659 162.722 55.4318C163.763 56.3977 164.284 57.6667 164.284 59.2386C164.284 60.6686 163.863 61.9233 163.02 63.0028C162.187 64.0824 161.041 64.9252 159.582 65.5312C158.134 66.1278 156.462 66.4261 154.568 66.4261C151.68 66.4261 149.379 65.8248 147.665 64.6222C145.96 63.41 144.961 61.7623 144.668 59.679L150.619 59.3665C150.799 60.2472 151.235 60.9195 151.926 61.3835C152.617 61.8381 153.503 62.0653 154.582 62.0653C155.643 62.0653 156.495 61.8617 157.139 61.4545C157.793 61.0379 158.124 60.5028 158.134 59.8494C158.124 59.3002 157.892 58.8504 157.438 58.5C156.983 58.1402 156.282 57.8655 155.335 57.6761L151.557 56.9233C149.426 56.4972 147.84 55.7585 146.798 54.7074C145.766 53.6562 145.25 52.3163 145.25 50.6875C145.25 49.286 145.629 48.0786 146.386 47.0653C147.153 46.0521 148.228 45.2708 149.611 44.7216C151.003 44.1723 152.632 43.8977 154.497 43.8977C157.253 43.8977 159.421 44.4801 161.003 45.6449C162.594 46.8097 163.522 48.3958 163.787 50.4034Z" fill="white"/>
<g clip-path="url(#clip0_2_64)">
<path d="M124.766 115H90.2344C81.8207 115 75 121.821 75 130.234V164.766C75 173.179 81.8207 180 90.2344 180H124.766C133.179 180 140 173.179 140 164.766V130.234C140 121.821 133.179 115 124.766 115Z" fill="#0A66C2"/>
<path d="M121.9 170.272H129.332C129.601 170.272 129.86 170.165 130.05 169.974C130.241 169.784 130.348 169.526 130.348 169.256L130.352 153.554C130.352 145.347 128.583 139.039 118.992 139.039C115.346 138.903 111.908 140.783 110.053 143.921C110.044 143.936 110.03 143.948 110.014 143.955C109.997 143.961 109.979 143.962 109.962 143.958C109.945 143.953 109.93 143.943 109.919 143.929C109.908 143.915 109.902 143.898 109.902 143.88V140.812C109.902 140.543 109.795 140.284 109.604 140.094C109.414 139.903 109.156 139.796 108.886 139.796H101.834C101.564 139.796 101.306 139.903 101.115 140.094C100.925 140.284 100.818 140.543 100.818 140.812V169.255C100.818 169.524 100.925 169.782 101.115 169.973C101.306 170.163 101.564 170.27 101.834 170.27H109.265C109.534 170.27 109.793 170.163 109.983 169.973C110.174 169.782 110.281 169.524 110.281 169.255V155.195C110.281 151.22 111.035 147.37 115.963 147.37C120.822 147.37 120.885 151.919 120.885 155.453V169.256C120.885 169.525 120.992 169.784 121.182 169.974C121.373 170.165 121.631 170.272 121.9 170.272ZM84.6484 130.14C84.6484 133.152 87.1283 135.631 90.1409 135.631C93.1528 135.631 95.6312 133.15 95.6312 130.139C95.6306 127.127 93.152 124.648 90.1399 124.648C87.1271 124.648 84.6484 127.128 84.6484 130.14ZM86.4154 170.272H93.8566C94.126 170.272 94.3843 170.165 94.5748 169.974C94.7652 169.784 94.8722 169.525 94.8722 169.256V140.812C94.8722 140.543 94.7652 140.284 94.5748 140.094C94.3843 139.903 94.126 139.796 93.8566 139.796H86.4154C86.146 139.796 85.8877 139.903 85.6972 140.094C85.5067 140.284 85.3997 140.543 85.3997 140.812V169.256C85.3997 169.525 85.5067 169.784 85.6972 169.974C85.8877 170.165 86.146 170.272 86.4154 170.272Z" fill="white"/>
</g>
<g clip-path="url(#clip1_2_64)">
<path d="M190.531 180H155.469C146.926 180 140 186.926 140 195.469V230.531C140 239.074 146.926 246 155.469 246H190.531C199.074 246 206 239.074 206 230.531V195.469C206 186.926 199.074 180 190.531 180Z" fill="#F4F2ED"/>
<path d="M150.734 232.346H158.937V212.424L147.219 203.635V228.83C147.219 230.776 148.795 232.346 150.734 232.346Z" fill="#4285F4"/>
<path d="M187.062 232.346H195.266C197.211 232.346 198.781 230.77 198.781 228.83V203.635L187.062 212.424" fill="#34A853"/>
<path d="M187.062 197.19V212.424L198.781 203.635V198.947C198.781 194.6 193.818 192.121 190.344 194.729" fill="#FBBC04"/>
<path d="M158.938 212.424V197.19L173 207.736L187.062 197.189V212.424L173 222.971" fill="#EA4335"/>
<path d="M147.219 198.947V203.635L158.937 212.424V197.19L155.656 194.729C152.176 192.121 147.219 194.6 147.219 198.947Z" fill="#C5221F"/>
</g>
<defs>
<clipPath id="clip0_2_64">
<rect width="65" height="65" fill="white" transform="translate(75 115)"/>
</clipPath>
<clipPath id="clip1_2_64">
<rect width="66" height="66" fill="white" transform="translate(140 180)"/>
</clipPath>
</defs>
</svg>
